<?xml version="1.0" encoding="UTF-8" standalone="no"?>
<!DOCTYPE svg PUBLIC "-//W3C//DTD SVG 1.1//EN" "http://www.w3.org/Graphics/SVG/1.1/DTD/svg11.dtd">
<svg width="100%" height="100%" viewBox="0 0 3508 2481" version="1.1" xmlns="http://www.w3.org/2000/svg" xmlns:xlink="http://www.w3.org/1999/xlink" xml:space="preserve" style="fill-rule:evenodd;clip-rule:evenodd;stroke-linejoin:round;stroke-miterlimit:2;">
    <g transform="matrix(1.80679,0,0,1.81811,-1723.53,-1379.08)">
        <path d="M1751.18,1739.92L1398.21,1738.23L1337.89,1119.62C1331.69,1056.01 1371.6,996.99 1432.93,979.042L2161.13,765.928C2218.22,749.22 2279.87,761.172 2326.58,798.006C2373.29,834.839 2399.29,891.999 2396.36,951.413L2357.28,1742.81L1992.12,1741.07L1941.45,2074.54L1751.18,1739.92Z" style="fill:rgb(117,189,128);"/>
    </g>
    <g transform="matrix(2.28602,0,0,2.0557,-333.22,-1718.09)">
        <path d="M1680.26,1580.2C1680.26,1434.64 1537.34,1316.47 1361.3,1316.47C1185.26,1316.47 1042.34,1434.64 1042.34,1580.2C1042.34,1665.13 1091.81,1744.87 1175.25,1794.41L1138.03,2042.33L1317.64,1841.44C1332.11,1843.1 1346.69,1843.93 1361.3,1843.93C1537.34,1843.93 1680.26,1725.75 1680.26,1580.2Z" style="fill:rgb(63,97,170);"/>
    </g>
    <g transform="matrix(-2.79727,0,0,1.81811,4729.68,-1388.03)">
        <path d="M1690.82,1531.17C1690.82,1344.99 1582.01,1193.84 1447.99,1193.84C1313.97,1193.84 1205.17,1344.99 1205.17,1531.17C1205.17,1641.19 1243.79,1744.31 1308.65,1807.44L1278.01,2037.17L1385.08,1856.98C1405.6,1864.63 1426.75,1868.5 1447.99,1868.5C1582.01,1868.5 1690.82,1717.35 1690.82,1531.17Z" style="fill:rgb(255,175,70);"/>
    </g>
    <g>
        <path d="M1621.45,1182.59C1630.46,1181.36 1648.72,1179.04 1660.95,1178.18C1672.23,1177.39 1686.86,1177.89 1694.86,1177.43C1699.6,1177.16 1705.23,1176.81 1708.95,1175.44C1712.18,1174.25 1715.24,1172.05 1717.18,1169.2C1719.17,1166.27 1720.27,1161.79 1720.92,1157.86C1721.91,1151.88 1721.39,1141.33 1723.12,1133.3C1725.25,1123.44 1728.31,1109.48 1733.7,1098.69C1739.11,1087.85 1746.57,1076.89 1755.6,1068.25C1770.39,1054.09 1800.94,1032.84 1822.44,1013.77C1847.33,991.685 1884.07,966.241 1904.95,935.761C1925.83,905.281 1942.19,868.232 1947.72,830.884C1953.88,789.198 1954.23,730.375 1941.94,685.644C1929.65,640.912 1907.88,592.67 1873.96,562.495C1840.04,532.321 1786.89,512.62 1738.42,504.594C1686.47,495.992 1606,502.483 1562.24,510.879C1516.03,519.748 1493.15,535.491 1474.41,546.646C1463.04,553.417 1453.32,565.05 1449.82,577.814C1445,595.432 1445.25,627.468 1445.47,652.358C1445.71,679.429 1448.55,718.756 1451.27,740.241C1453.04,754.248 1458.62,773.067 1461.79,781.267C1463.2,784.93 1466.35,789.706 1470.27,789.446C1475.27,789.113 1484.58,782.554 1491.81,779.273C1502.4,774.469 1519.37,765.757 1533.8,760.622C1551.55,754.303 1577.66,743.069 1598.33,741.36C1618.31,739.707 1641.74,741.632 1657.8,750.367C1673.85,759.102 1689.47,775.454 1694.65,793.771C1701.12,816.625 1697.8,859.322 1687.6,889.732C1676.73,922.133 1645.77,959.507 1629.46,988.177C1615.68,1012.4 1598.47,1040.44 1589.75,1061.75C1582.71,1078.94 1578.03,1097.47 1577.12,1116.02C1576.17,1135.36 1581.34,1166.06 1584.05,1177.82C1585.01,1181.97 1589.6,1185.25 1593.4,1186.54C1597.21,1187.83 1602.41,1186.17 1606.87,1185.54C1611.54,1184.88 1616.53,1183.26 1621.45,1182.59Z" style="fill:white;"/>
        <g transform="matrix(1,0,0,1,-29.7233,-2.22925)">
            <circle cx="1694.23" cy="1353.21" r="119.636" style="fill:white;"/>
        </g>
    </g>
    <g transform="matrix(0.757366,0,0,0.757366,-652.766,640.285)">
        <path d="M1621.45,1182.59C1630.46,1181.36 1648.72,1179.04 1660.95,1178.18C1672.23,1177.39 1686.86,1177.89 1694.86,1177.43C1699.6,1177.16 1705.23,1176.81 1708.95,1175.44C1712.18,1174.25 1715.24,1172.05 1717.18,1169.2C1719.17,1166.27 1720.27,1161.79 1720.92,1157.86C1721.91,1151.88 1721.39,1141.33 1723.12,1133.3C1725.25,1123.44 1728.31,1109.48 1733.7,1098.69C1739.11,1087.85 1746.57,1076.89 1755.6,1068.25C1770.39,1054.09 1800.94,1032.84 1822.44,1013.77C1847.33,991.685 1884.07,966.241 1904.95,935.761C1925.83,905.281 1942.19,868.232 1947.72,830.884C1953.88,789.198 1954.23,730.375 1941.94,685.644C1929.65,640.912 1907.88,592.67 1873.96,562.495C1840.04,532.321 1786.89,512.62 1738.42,504.594C1686.47,495.992 1606,502.483 1562.24,510.879C1516.03,519.748 1493.15,535.491 1474.41,546.646C1463.04,553.417 1453.32,565.05 1449.82,577.814C1445,595.432 1445.25,627.468 1445.47,652.358C1445.71,679.429 1448.55,718.756 1451.27,740.241C1453.04,754.248 1458.62,773.067 1461.79,781.267C1463.2,784.93 1466.35,789.706 1470.27,789.446C1475.27,789.113 1484.58,782.554 1491.81,779.273C1502.4,774.469 1519.37,765.757 1533.8,760.622C1551.55,754.303 1577.66,743.069 1598.33,741.36C1618.31,739.707 1641.74,741.632 1657.8,750.367C1673.85,759.102 1689.47,775.454 1694.65,793.771C1701.12,816.625 1697.8,859.322 1687.6,889.732C1676.73,922.133 1645.77,959.507 1629.46,988.177C1615.68,1012.4 1598.47,1040.44 1589.75,1061.75C1582.71,1078.94 1578.03,1097.47 1577.12,1116.02C1576.17,1135.36 1581.34,1166.06 1584.05,1177.82C1585.01,1181.97 1589.6,1185.25 1593.4,1186.54C1597.21,1187.83 1602.41,1186.17 1606.87,1185.54C1611.54,1184.88 1616.53,1183.26 1621.45,1182.59Z" style="fill:white;"/>
        <g transform="matrix(1,0,0,1,-29.7233,-2.22925)">
            <circle cx="1694.23" cy="1353.21" r="119.636" style="fill:white;"/>
        </g>
    </g>
    <g transform="matrix(0.874,0,0,0.874,1334.62,692.577)">
        <path d="M1621.45,1182.59C1630.46,1181.36 1648.72,1179.04 1660.95,1178.18C1672.23,1177.39 1686.86,1177.89 1694.86,1177.43C1699.6,1177.16 1705.23,1176.81 1708.95,1175.44C1712.18,1174.25 1715.24,1172.05 1717.18,1169.2C1719.17,1166.27 1720.27,1161.79 1720.92,1157.86C1721.91,1151.88 1721.39,1141.33 1723.12,1133.3C1725.25,1123.44 1728.31,1109.48 1733.7,1098.69C1739.11,1087.85 1746.57,1076.89 1755.6,1068.25C1770.39,1054.09 1800.94,1032.84 1822.44,1013.77C1847.33,991.685 1884.07,966.241 1904.95,935.761C1925.83,905.281 1942.19,868.232 1947.72,830.884C1953.88,789.198 1954.23,730.375 1941.94,685.644C1929.65,640.912 1907.88,592.67 1873.96,562.495C1840.04,532.321 1786.89,512.62 1738.42,504.594C1686.47,495.992 1606,502.483 1562.24,510.879C1516.03,519.748 1493.15,535.491 1474.41,546.646C1463.04,553.417 1453.32,565.05 1449.82,577.814C1445,595.432 1445.25,627.468 1445.47,652.358C1445.71,679.429 1448.55,718.756 1451.27,740.241C1453.04,754.248 1458.62,773.067 1461.79,781.267C1463.2,784.93 1466.35,789.706 1470.27,789.446C1475.27,789.113 1484.58,782.554 1491.81,779.273C1502.4,774.469 1519.37,765.757 1533.8,760.622C1551.55,754.303 1577.66,743.069 1598.33,741.36C1618.31,739.707 1641.74,741.632 1657.8,750.367C1673.85,759.102 1689.47,775.454 1694.65,793.771C1701.12,816.625 1697.8,859.322 1687.6,889.732C1676.73,922.133 1645.77,959.507 1629.46,988.177C1615.68,1012.4 1598.47,1040.44 1589.75,1061.75C1582.71,1078.94 1578.03,1097.47 1577.12,1116.02C1576.17,1135.36 1581.34,1166.06 1584.05,1177.82C1585.01,1181.97 1589.6,1185.25 1593.4,1186.54C1597.21,1187.83 1602.41,1186.17 1606.87,1185.54C1611.54,1184.88 1616.53,1183.26 1621.45,1182.59Z" style="fill:white;"/>
        <g transform="matrix(1,0,0,1,-29.7233,-2.22925)">
            <circle cx="1694.23" cy="1353.21" r="119.636" style="fill:white;"/>
        </g>
    </g>
</svg>
