<?xml version="1.0" encoding="UTF-8" standalone="no"?>
<!DOCTYPE svg PUBLIC "-//W3C//DTD SVG 1.1//EN" "http://www.w3.org/Graphics/SVG/1.1/DTD/svg11.dtd">
<svg width="100%" height="100%" viewBox="0 0 500 500" version="1.1" xmlns="http://www.w3.org/2000/svg" xmlns:xlink="http://www.w3.org/1999/xlink" xml:space="preserve" xmlns:serif="http://www.serif.com/" style="fill-rule:evenodd;clip-rule:evenodd;stroke-linejoin:round;stroke-miterlimit:2;">
    <g>
        <path d="M478.34,250C478.34,123.89 376.11,21.66 250,21.66C123.89,21.66 21.66,123.89 21.66,250C21.66,376.11 123.89,478.34 250,478.34C376.11,478.34 478.34,376.11 478.34,250Z" style="fill:none;"/>
        <path d="M471.58,250C471.58,127.62 372.38,28.42 250,28.42C127.62,28.42 28.42,127.62 28.42,250C28.42,372.38 127.62,471.58 250,471.58C372.38,471.58 471.58,372.38 471.58,250Z" style="fill:none;"/>
        <path d="M250.11,384.94C250.58,387.71 250.74,390.98 251.23,393.27C255.75,414.34 270.44,436.14 291.33,443.45C311.67,450.57 333.09,441.48 341.54,421.51C346.77,409.15 350.23,396.31 351.94,382.99C354.2,365.42 355.66,347.85 359.44,330.5C360.57,325.28 362.4,318.87 364.92,311.28C371.84,290.42 379,269.52 385.34,248.48C389.45,234.87 392.28,221.54 393.85,208.51C395.65,193.55 393.79,178.69 388.27,163.92C388.14,163.57 388.23,163.29 388.52,163.08C392.35,160.29 393.97,156.44 393.38,151.53C392.75,146.22 391.84,141.12 390.67,136.23C388.22,126.09 386.42,119.08 375.96,116.98C375.37,116.86 375.04,116.24 375.28,115.69C377.93,109.44 374.5,100.97 370.69,95.93C366.55,90.45 360.61,88.56 354.27,91.21C352.77,91.84 351.06,90.95 350.72,89.36C349.03,81.53 341.62,68.96 331.67,71.31C329.53,71.81 327.75,73.74 325,74.05C324.62,74.09 324.37,73.93 324.24,73.58C322.22,67.95 319.21,63.93 315.22,61.54C307.61,56.99 301.55,59.96 295.45,65.03C295.02,65.38 294.39,65.25 294.14,64.76C289.76,56.19 279.65,45.75 268.99,46.66C257.829,47.6 251.82,60.16 250.42,69.86C250.39,70.06 250.22,70.2 250.03,70.2C249.83,70.2 249.66,70.06 249.63,69.86C248.09,59.67 241.08,45.53 228.66,46.55C219.08,47.34 210.58,56.16 205.94,64.48C205.52,65.23 204.97,65.33 204.3,64.79C199.56,60.95 195.14,58.17 188.89,59.76C183.09,61.24 177.94,67.32 176.03,72.78C175.6,74.01 174.11,74.48 173.06,73.72C161.23,65.24 151.58,79.26 149.27,89.31C148.98,90.54 147.78,91.34 146.53,91.12C141.18,90.18 137.01,89.15 132.44,92.65C130.47,94.15 128.58,96.56 126.75,99.87C124.02,104.81 123.28,110.25 124.52,116.2C124.59,116.55 124.45,116.77 124.1,116.84C117.4,118.25 113.09,122.42 111.17,129.37C109.45,135.59 108.19,141.16 107.39,146.07C106.19,153.46 105.28,158.67 111.39,163.04C111.65,163.22 111.73,163.46 111.62,163.75C106.01,179.27 104.47,196.1 107,214.25C108.49,224.92 110.65,234.92 113.49,244.27C119.62,264.42 126.65,286.21 134.56,309.63C137.05,317.03 138.92,323.34 140.15,328.56C146.8,356.7 145.33,386 155.31,413.49C158.17,421.36 161.15,427.29 164.26,431.27C173.88,443.59 189.72,448.23 204.94,444.53C210.09,443.28 214.6,441.36 218.46,438.76C237.07,426.21 247.52,408.27 249.8,384.95C249.87,384.18 249.98,384.18 250.11,384.94Z" style="fill:none;"/>
        <path d="M164.17,417.32C168.77,428.92 176.64,435.89 187.79,438.23C211.12,443.12 229.49,423.85 238.09,404.7C243.75,392.11 244.68,379.5 241.51,365.86C240.18,360.11 238.63,355.31 236.88,351.44C231.36,339.23 226.03,326.95 220.89,314.6C215.11,300.69 213.47,286.56 215.97,272.23C218.43,258.141 225.39,243.71 231.72,228.76C237.95,214.06 242.47,197.47 245.28,178.99C246.25,172.6 246.36,166.21 245.6,159.82C244.53,150.84 239.41,142.36 237.95,133.82C236.75,126.82 236.01,116.92 238.7,110.17C240.33,106.07 242.1,102.16 242.81,97.97C244.34,88.94 244.33,79.86 242.76,70.75C241.6,64.01 237.46,52.64 228.48,53.46C220.92,54.15 213.6,63.41 210.51,70.28C207.2,77.59 202.27,89.83 207.27,96.25C211.84,102.13 218.14,108.07 215.27,115.26C215.16,115.54 214.97,115.78 214.72,115.95C212.45,117.47 210.67,120.02 208.27,120.88C200.14,123.77 191.76,118.94 184.78,115.78C178.21,112.81 170.43,115.58 164.75,119.51C154.42,126.66 145.2,133.75 137.07,140.79C126,150.39 118.61,162.02 114.92,175.69C113.43,181.22 112.68,187.82 112.68,195.48C112.68,208.22 114.07,219.94 116.85,230.64C120.84,245.97 125.15,260.261 129.78,273.49C136.09,291.52 142,308.07 146.48,325.66C152.09,347.66 152.73,372.46 156.23,391C157.76,399.05 160.4,407.83 164.17,417.32Z" style="fill:none;"/>
        <path d="M386.41,210.13C387.31,201.14 387.83,191.19 386.47,182.64C383.85,166.14 376.09,152.27 363.18,141.04C354.57,133.55 345.57,126.56 336.17,120.08C331.28,116.71 324.62,113.63 318.62,114.68C317.41,114.89 314.74,115.97 310.62,117.9C305.05,120.52 298.9,122.82 293.03,121.42C290.41,120.8 285.2,116.45 284.26,113.96C280.86,105.02 295.57,98.28 294.91,89.51C294.01,77.73 285.43,54.92 271.35,53.36C268.44,53.03 265.96,53.97 263.93,56.17C254.63,66.25 254.97,86.45 257.37,98.91C258.579,105.23 262.19,110.33 262.75,116.78C263.26,122.65 263,128.48 261.97,134.27C260.299,143.73 255.13,151.98 254.21,161.44C253.62,167.51 253.78,173.45 254.71,179.25C257.13,194.35 260.89,209.33 266.55,224.12C272.34,239.27 280.72,255.81 283.81,270.24C286.82,284.34 285.4,298.68 279.54,313.27C274.91,324.81 270.03,336.25 264.92,347.58C256.85,365.49 253.31,383.54 260.829,402.14C268.4,420.85 285.07,440.31 307.41,438.86C320.96,437.99 330.48,430.77 335.95,417.21C343.54,398.4 346.08,379.54 348.08,358.94C349.63,343.03 352.12,329.33 356.23,315.5C366.07,282.4 383.15,242.75 386.41,210.13Z" style="fill:none;"/>
        <path d="M183.89,90.83C188.93,95.79 190.75,102.22 188.15,108.31C187.88,108.93 188.12,109.65 188.71,109.98C193.89,112.87 202.72,117.46 208.12,113.03C209.71,111.72 209.27,110.25 208.13,108.88C205.32,105.5 201.17,100.37 199.39,96.03C196.79,89.66 198.87,80.4 201.42,74.37C201.66,73.8 201.65,73.15 201.39,72.58C199.92,69.43 197.52,67.47 194.18,66.69C186.35,64.86 182.1,74.77 181.09,80.85C180.44,84.78 181.12,88.1 183.89,90.83Z" style="fill:none;"/>
        <path d="M300.18,96.95C298.53,100.3 295.8,104.22 292,108.71C288.27,113.11 295.1,115.43 298.31,114.88C302.62,114.15 306.88,112.5 311.09,109.95C311.77,109.54 311.98,108.96 311.73,108.21C309.54,101.66 310.89,95.91 315.78,90.97C321.48,85.21 318.96,76.94 314.99,70.96C310.69,64.46 303.25,65.44 298.95,71.57C298.36,72.42 298.23,73.29 298.57,74.19C301.22,81.19 303.44,90.33 300.18,96.95Z" style="fill:none;"/>
        <path d="M157.29,104.47C158.25,107.52 158.73,110.73 158.72,114.11C158.72,114.78 159.49,115.15 160.01,114.73C165.89,110.05 172.59,107.66 180.11,107.57C180.79,107.56 181.4,107.14 181.63,106.5C182.68,103.69 182.71,100.89 181.74,98.08C181.62,97.74 181.41,97.47 181.12,97.26C177.03,94.41 174.7,90.59 174.15,85.8C173.86,83.33 173.48,81.69 173,80.9C170.35,76.47 164.44,75.91 161.26,80.25C158.94,83.42 153.88,90.54 153.92,94.79C153.95,98.51 156.51,102 157.29,104.47Z" style="fill:none;"/>
        <path d="M319.52,107.59C327.29,107.47 334.29,110.29 340.38,114.86C340.82,115.19 341.45,114.86 341.43,114.31C341.22,108.8 342.41,103.75 345.02,99.14C348.08,93.74 343.81,87.74 340.6,83.02C339.06,80.75 338.27,79.59 338.22,79.54C335.18,75.9 329.27,76.89 327.02,80.76C326.52,81.63 326.14,83.22 325.88,85.55C325.34,90.48 322.98,94.4 318.8,97.32C318.49,97.54 318.27,97.83 318.14,98.2C317.07,101.29 317.29,104.28 318.79,107.16C318.94,107.45 319.19,107.6 319.52,107.59Z" style="fill:none;"/>
        <path d="M246.98,107.66C245.11,111.63 244.11,114.5 243.97,116.26C243.07,127.59 245.08,138.33 250.01,148.49C250.14,148.76 250.26,148.76 250.35,148.47C252.48,142.23 255.09,135.65 255.85,129.5C256.7,122.64 256.56,115.32 253.59,109.02C251.36,104.31 250.83,101.99 250.24,97.18C250.22,97.03 250.09,96.91 249.93,96.92C249.78,96.92 249.66,97.05 249.65,97.2C249.49,101.14 248.77,103.86 246.98,107.66Z" style="fill:none;"/>
        <path d="M137.95,130.21C138.12,130.56 138.57,130.67 138.87,130.43L153.19,119.2C153.46,118.99 153.54,118.62 153.38,118.32L152.19,115.97C152.04,115.68 151.96,115.38 151.95,115.05C151.82,108.76 150.53,101.97 144.68,98.63C135.32,93.29 130.2,105.12 130.64,112.12C130.97,117.34 135.3,124.57 137.95,130.21Z" style="fill:none;"/>
        <path d="M362.12,130.22C364.28,126.05 366.6,121.13 368.22,116.75C369.24,114 369.62,111.56 369.37,109.42C368.58,102.82 363.57,93.86 355.36,98.66C352.93,100.07 351.35,101.59 350.6,103.2C349.07,106.49 347.5,111.44 345.91,118.04C345.84,118.31 345.92,118.54 346.15,118.72L361.14,130.43C361.46,130.68 361.93,130.58 362.12,130.22Z" style="fill:none;"/>
        <path d="M118.17,129.96C116.13,136.25 114.65,142.68 113.73,149.23C113.42,151.45 113.47,153.59 113.88,155.65C114.06,156.53 115.22,156.73 115.68,155.96C120.29,148.18 126.1,141.42 133.1,135.67C133.4,135.42 133.49,135.11 133.38,134.73C133,133.46 132.28,132.43 131.23,131.63C130.96,131.42 130.77,131.16 130.67,130.84C129.99,128.69 128.869,126.81 127.32,125.18C123.73,121.4 119.28,126.53 118.17,129.96Z" style="fill:none;"/>
        <path d="M369.21,130.59C368.64,131.71 367.07,133.46 367,135.16C366.99,135.53 367.14,135.88 367.42,136.11C374.39,141.97 380.18,148.84 384.77,156.71C385.09,157.27 385.95,157.11 386.05,156.47C386.35,154.65 386.44,153.16 386.33,152.01C385.82,146.67 383.49,128.5 379.06,125.38C373.54,121.49 371.35,126.38 369.21,130.59Z" style="fill:none;"/>
        <path d="M250.05,376.22C252.3,354.38 261.769,337.65 271.51,315.22C279.73,296.3 280.23,277.51 273.01,258.85C268.3,246.68 263.47,234.54 258.519,222.45C255.91,216.06 253.19,206.46 250.38,193.64C250.17,192.72 249.95,192.72 249.71,193.63C248.31,198.96 247.29,204.44 245.63,209.65C240.44,226.04 233.69,241.81 227.13,257.69C224.12,264.97 222.35,272.86 221.82,281.36C220.47,303.18 231.84,323.51 240.74,342.59C245.79,353.41 248.84,364.62 249.9,376.22C249.95,376.73 250,376.73 250.05,376.22Z" style="fill:none;"/>
        <path d="M210.63,124.13C217.44,124.9 224.58,126.9 230.74,130.07C231.18,130.3 231.71,130.13 231.94,129.69L234.14,125.41C234.44,124.83 234.19,124.13 233.6,123.86C227.53,121.18 221.81,119.35 216.46,118.38C214.03,117.95 211.65,121.33 210.19,122.95C209.8,123.38 210.06,124.06 210.63,124.13Z" style="fill:none;"/>
        <path d="M186.04,210.51C200.83,225.1 221.99,223.68 235.01,207.68C235.26,207.37 235.23,207.09 234.91,206.85L230.75,203.68C230.38,203.41 230.04,203.43 229.73,203.76C217.56,216.53 204.57,217.29 190.77,206.05C190.53,205.85 190.18,205.86 189.95,206.07L186.06,209.66C185.76,209.94 185.75,210.22 186.04,210.51Z" style="fill:none;"/>
        <path d="M160.88,233.23C162.61,229.13 164.93,226.08 167.83,224.07C172.24,221.02 177.95,217.7 181.11,213.34C181.33,213.03 181.26,212.61 180.95,212.4L176.65,209.47C176.36,209.28 176.09,209.29 175.84,209.52C172.13,212.81 168.26,215.89 164.23,218.76C158.18,223.06 155.52,226.15 154.15,233.02C154.04,233.56 154.45,234.08 155.01,234.07L159.74,234C160.29,233.99 160.67,233.74 160.88,233.23Z" style="fill:none;"/>
        <path d="M162.74,316.48C166.29,328.01 158.49,340.23 153.12,349.99C152.82,350.54 153.02,351.23 153.57,351.52L157.68,353.73C158.03,353.92 158.46,353.81 158.67,353.47C164.36,344.21 168.09,336.14 169.86,329.26C171.27,323.76 170.94,318.48 168.85,313.41C168.53,312.64 168.02,312.48 167.32,312.93L163.06,315.61C162.73,315.82 162.62,316.11 162.74,316.48Z" style="fill:none;"/>
        <path d="M265.78,125.14L267.92,129.43C268.21,130.03 268.93,130.27 269.53,129.97C275.79,126.88 282.4,124.94 289.37,124.14C290.43,124.02 290.58,123.58 289.83,122.83L285.36,118.38C285.07,118.09 284.73,117.99 284.34,118.06C278,119.26 271.93,121.27 266.14,124.1C265.75,124.29 265.59,124.76 265.78,125.14Z" style="fill:none;"/>
        <path d="M280.06,211.42C276.73,209.95 273.54,207.38 270.51,203.7C270.26,203.4 269.82,203.34 269.51,203.56L265.1,206.71C264.81,206.92 264.75,207.33 264.97,207.61C277.67,223.76 299.42,225.07 313.98,210.45C314.23,210.2 314.23,209.95 313.97,209.71L310.15,206.13C309.91,205.91 309.55,205.89 309.28,206.07C307.71,207.13 306.19,208.16 304.73,209.17C296.98,214.5 288.75,215.25 280.06,211.42Z" style="fill:none;"/>
        <path d="M338.42,231.79C339.52,235.06 341.92,234.21 344.66,233.98C345.68,233.89 346.06,233.36 345.81,232.37C344.14,225.67 341.39,222.71 335.36,218.48C331.48,215.75 327.78,212.79 324.26,209.58C323.95,209.3 323.63,209.28 323.29,209.51L319.09,212.38C318.79,212.59 318.7,213.01 318.91,213.31C323.8,220.62 335.52,223.2 338.42,231.79Z" style="fill:none;"/>
        <path d="M346.91,349.94C341.55,340.82 333.51,327.35 337.24,316.53C337.38,316.13 337.27,315.82 336.91,315.61L332.23,312.8C331.76,312.52 331.43,312.63 331.23,313.13C328.7,319.36 328.6,325.66 330.95,332.02C333.65,339.31 336.99,346.35 340.97,353.13C341.36,353.81 341.91,353.96 342.6,353.59L346.48,351.49C347.04,351.19 347.23,350.49 346.91,349.94Z" style="fill:none;"/>
        <path d="M478.34,250C478.34,376.11 376.11,478.34 250,478.34C123.89,478.34 21.66,376.11 21.66,250C21.66,123.89 123.89,21.66 250,21.66C376.11,21.66 478.34,123.89 478.34,250ZM471.58,250C471.58,127.62 372.38,28.42 250,28.42C127.62,28.42 28.42,127.62 28.42,250C28.42,372.38 127.62,471.58 250,471.58C372.38,471.58 471.58,372.38 471.58,250Z" style="fill:rgb(64,97,166);fill-rule:nonzero;stroke:rgb(64,97,166);stroke-width:5.05px;"/>
        <path d="M249.8,384.95C247.52,408.27 237.07,426.21 218.46,438.76C214.6,441.36 210.09,443.28 204.94,444.53C189.72,448.23 173.88,443.59 164.26,431.27C161.15,427.29 158.17,421.36 155.31,413.49C145.33,386 146.8,356.7 140.15,328.56C138.92,323.34 137.05,317.03 134.56,309.63C126.65,286.21 119.62,264.42 113.49,244.27C110.65,234.92 108.49,224.92 107,214.25C104.47,196.1 106.01,179.27 111.62,163.75C111.73,163.46 111.65,163.22 111.39,163.04C105.28,158.67 106.19,153.46 107.39,146.07C108.19,141.16 109.45,135.59 111.17,129.37C113.09,122.42 117.4,118.25 124.1,116.84C124.45,116.77 124.59,116.55 124.52,116.2C123.28,110.25 124.02,104.81 126.75,99.87C128.58,96.56 130.47,94.15 132.44,92.65C137.01,89.15 141.18,90.18 146.53,91.12C147.78,91.34 148.98,90.54 149.27,89.31C151.58,79.26 161.23,65.24 173.06,73.72C174.11,74.48 175.6,74.01 176.03,72.78C177.94,67.32 183.09,61.24 188.89,59.76C195.14,58.17 199.56,60.95 204.3,64.79C204.97,65.33 205.52,65.23 205.94,64.48C210.58,56.16 219.08,47.34 228.66,46.55C241.08,45.53 248.09,59.67 249.63,69.86C249.66,70.06 249.83,70.2 250.03,70.2C250.22,70.2 250.39,70.06 250.42,69.86C251.82,60.16 257.829,47.6 268.99,46.66C279.65,45.75 289.76,56.19 294.14,64.76C294.39,65.25 295.02,65.38 295.45,65.03C301.55,59.96 307.61,56.99 315.22,61.54C319.21,63.93 322.22,67.95 324.24,73.58C324.37,73.93 324.62,74.09 325,74.05C327.75,73.74 329.53,71.81 331.67,71.31C341.62,68.96 349.03,81.53 350.72,89.36C351.06,90.95 352.77,91.84 354.27,91.21C360.61,88.56 366.55,90.45 370.69,95.93C374.5,100.97 377.93,109.44 375.28,115.69C375.04,116.24 375.37,116.86 375.96,116.98C386.42,119.08 388.22,126.09 390.67,136.23C391.84,141.12 392.75,146.22 393.38,151.53C393.97,156.44 392.35,160.29 388.52,163.08C388.23,163.29 388.14,163.57 388.27,163.92C393.79,178.69 395.65,193.55 393.85,208.51C392.28,221.54 389.45,234.87 385.34,248.48C379,269.52 371.84,290.42 364.92,311.28C362.4,318.87 360.57,325.28 359.44,330.5C355.66,347.85 354.2,365.42 351.94,382.99C350.23,396.31 346.77,409.15 341.54,421.51C333.09,441.48 311.67,450.57 291.33,443.45C270.44,436.14 255.75,414.34 251.23,393.27C250.74,390.98 250.58,387.71 250.11,384.94C249.98,384.18 249.87,384.18 249.8,384.95ZM164.17,417.32C168.77,428.92 176.64,435.89 187.79,438.23C211.12,443.12 229.49,423.85 238.09,404.7C243.75,392.11 244.68,379.5 241.51,365.86C240.18,360.11 238.63,355.31 236.88,351.44C231.36,339.23 226.03,326.95 220.89,314.6C215.11,300.69 213.47,286.56 215.97,272.23C218.43,258.141 225.39,243.71 231.72,228.76C237.95,214.06 242.47,197.47 245.28,178.99C246.25,172.6 246.36,166.21 245.6,159.82C244.53,150.84 239.41,142.36 237.95,133.82C236.75,126.82 236.01,116.92 238.7,110.17C240.33,106.07 242.1,102.16 242.81,97.97C244.34,88.94 244.33,79.86 242.76,70.75C241.6,64.01 237.46,52.64 228.48,53.46C220.92,54.15 213.6,63.41 210.51,70.28C207.2,77.59 202.27,89.83 207.27,96.25C211.84,102.13 218.14,108.07 215.27,115.26C215.16,115.54 214.97,115.78 214.72,115.95C212.45,117.47 210.67,120.02 208.27,120.88C200.14,123.77 191.76,118.94 184.78,115.78C178.21,112.81 170.43,115.58 164.75,119.51C154.42,126.66 145.2,133.75 137.07,140.79C126,150.39 118.61,162.02 114.92,175.69C113.43,181.22 112.68,187.82 112.68,195.48C112.68,208.22 114.07,219.94 116.85,230.64C120.84,245.97 125.15,260.261 129.78,273.49C136.09,291.52 142,308.07 146.48,325.66C152.09,347.66 152.73,372.46 156.23,391C157.76,399.05 160.4,407.83 164.17,417.32ZM386.41,210.13C387.31,201.14 387.83,191.19 386.47,182.64C383.85,166.14 376.09,152.27 363.18,141.04C354.57,133.55 345.57,126.56 336.17,120.08C331.28,116.71 324.62,113.63 318.62,114.68C317.41,114.89 314.74,115.97 310.62,117.9C305.05,120.52 298.9,122.82 293.03,121.42C290.41,120.8 285.2,116.45 284.26,113.96C280.86,105.02 295.57,98.28 294.91,89.51C294.01,77.73 285.43,54.92 271.35,53.36C268.44,53.03 265.96,53.97 263.93,56.17C254.63,66.25 254.97,86.45 257.37,98.91C258.579,105.23 262.19,110.33 262.75,116.78C263.26,122.65 263,128.48 261.97,134.27C260.299,143.73 255.13,151.98 254.21,161.44C253.62,167.51 253.78,173.45 254.71,179.25C257.13,194.35 260.89,209.33 266.55,224.12C272.34,239.27 280.72,255.81 283.81,270.24C286.82,284.34 285.4,298.68 279.54,313.27C274.91,324.81 270.03,336.25 264.92,347.58C256.85,365.49 253.31,383.54 260.829,402.14C268.4,420.85 285.07,440.31 307.41,438.86C320.96,437.99 330.48,430.77 335.95,417.21C343.54,398.4 346.08,379.54 348.08,358.94C349.63,343.03 352.12,329.33 356.23,315.5C366.07,282.4 383.15,242.75 386.41,210.13ZM183.89,90.83C188.93,95.79 190.75,102.22 188.15,108.31C187.88,108.93 188.12,109.65 188.71,109.98C193.89,112.87 202.72,117.46 208.12,113.03C209.71,111.72 209.27,110.25 208.13,108.88C205.32,105.5 201.17,100.37 199.39,96.03C196.79,89.66 198.87,80.4 201.42,74.37C201.66,73.8 201.65,73.15 201.39,72.58C199.92,69.43 197.52,67.47 194.18,66.69C186.35,64.86 182.1,74.77 181.09,80.85C180.44,84.78 181.12,88.1 183.89,90.83ZM300.18,96.95C298.53,100.3 295.8,104.22 292,108.71C288.27,113.11 295.1,115.43 298.31,114.88C302.62,114.15 306.88,112.5 311.09,109.95C311.77,109.54 311.98,108.96 311.73,108.21C309.54,101.66 310.89,95.91 315.78,90.97C321.48,85.21 318.96,76.94 314.99,70.96C310.69,64.46 303.25,65.44 298.95,71.57C298.36,72.42 298.23,73.29 298.57,74.19C301.22,81.19 303.44,90.33 300.18,96.95ZM157.29,104.47C158.25,107.52 158.73,110.73 158.72,114.11C158.72,114.78 159.49,115.15 160.01,114.73C165.89,110.05 172.59,107.66 180.11,107.57C180.79,107.56 181.4,107.14 181.63,106.5C182.68,103.69 182.71,100.89 181.74,98.08C181.62,97.74 181.41,97.47 181.12,97.26C177.03,94.41 174.7,90.59 174.15,85.8C173.86,83.33 173.48,81.69 173,80.9C170.35,76.47 164.44,75.91 161.26,80.25C158.94,83.42 153.88,90.54 153.92,94.79C153.95,98.51 156.51,102 157.29,104.47ZM319.52,107.59C327.29,107.47 334.29,110.29 340.38,114.86C340.82,115.19 341.45,114.86 341.43,114.31C341.22,108.8 342.41,103.75 345.02,99.14C348.08,93.74 343.81,87.74 340.6,83.02C339.06,80.75 338.27,79.59 338.22,79.54C335.18,75.9 329.27,76.89 327.02,80.76C326.52,81.63 326.14,83.22 325.88,85.55C325.34,90.48 322.98,94.4 318.8,97.32C318.49,97.54 318.27,97.83 318.14,98.2C317.07,101.29 317.29,104.28 318.79,107.16C318.94,107.45 319.19,107.6 319.52,107.59ZM246.98,107.66C245.11,111.63 244.11,114.5 243.97,116.26C243.07,127.59 245.08,138.33 250.01,148.49C250.14,148.76 250.26,148.76 250.35,148.47C252.48,142.23 255.09,135.65 255.85,129.5C256.7,122.64 256.56,115.32 253.59,109.02C251.36,104.31 250.83,101.99 250.24,97.18C250.22,97.03 250.09,96.91 249.93,96.92C249.78,96.92 249.66,97.05 249.65,97.2C249.49,101.14 248.77,103.86 246.98,107.66ZM137.95,130.21C138.12,130.56 138.57,130.67 138.87,130.43L153.19,119.2C153.46,118.99 153.54,118.62 153.38,118.32L152.19,115.97C152.04,115.68 151.96,115.38 151.95,115.05C151.82,108.76 150.53,101.97 144.68,98.63C135.32,93.29 130.2,105.12 130.64,112.12C130.97,117.34 135.3,124.57 137.95,130.21ZM362.12,130.22C364.28,126.05 366.6,121.13 368.22,116.75C369.24,114 369.62,111.56 369.37,109.42C368.58,102.82 363.57,93.86 355.36,98.66C352.93,100.07 351.35,101.59 350.6,103.2C349.07,106.49 347.5,111.44 345.91,118.04C345.84,118.31 345.92,118.54 346.15,118.72L361.14,130.43C361.46,130.68 361.93,130.58 362.12,130.22ZM118.17,129.96C116.13,136.25 114.65,142.68 113.73,149.23C113.42,151.45 113.47,153.59 113.88,155.65C114.06,156.53 115.22,156.73 115.68,155.96C120.29,148.18 126.1,141.42 133.1,135.67C133.4,135.42 133.49,135.11 133.38,134.73C133,133.46 132.28,132.43 131.23,131.63C130.96,131.42 130.77,131.16 130.67,130.84C129.99,128.69 128.869,126.81 127.32,125.18C123.73,121.4 119.28,126.53 118.17,129.96ZM369.21,130.59C368.64,131.71 367.07,133.46 367,135.16C366.99,135.53 367.14,135.88 367.42,136.11C374.39,141.97 380.18,148.84 384.77,156.71C385.09,157.27 385.95,157.11 386.05,156.47C386.35,154.65 386.44,153.16 386.33,152.01C385.82,146.67 383.49,128.5 379.06,125.38C373.54,121.49 371.35,126.38 369.21,130.59ZM250.05,376.22C252.3,354.38 261.769,337.65 271.51,315.22C279.73,296.3 280.23,277.51 273.01,258.85C268.3,246.68 263.47,234.54 258.519,222.45C255.91,216.06 253.19,206.46 250.38,193.64C250.17,192.72 249.95,192.72 249.71,193.63C248.31,198.96 247.29,204.44 245.63,209.65C240.44,226.04 233.69,241.81 227.13,257.69C224.12,264.97 222.35,272.86 221.82,281.36C220.47,303.18 231.84,323.51 240.74,342.59C245.79,353.41 248.84,364.62 249.9,376.22C249.95,376.73 250,376.73 250.05,376.22Z" style="fill:rgb(119,188,130);fill-rule:nonzero;stroke:rgb(119,188,130);stroke-width:5px;"/>
        <path d="M230.74,130.07C224.58,126.9 217.44,124.9 210.63,124.13C210.06,124.06 209.8,123.38 210.19,122.95C211.65,121.33 214.03,117.95 216.46,118.38C221.81,119.35 227.53,121.18 233.6,123.86C234.19,124.13 234.44,124.83 234.14,125.41L231.94,129.69C231.71,130.13 231.18,130.3 230.74,130.07Z" style="fill:rgb(119,188,130);fill-rule:nonzero;"/>
        <path d="M265.78,125.14C265.59,124.76 265.75,124.29 266.14,124.1C271.93,121.27 278,119.26 284.34,118.06C284.73,117.99 285.07,118.09 285.36,118.38L289.83,122.83C290.58,123.58 290.43,124.02 289.37,124.14C282.4,124.94 275.79,126.88 269.53,129.97C268.93,130.27 268.21,130.03 267.92,129.43L265.78,125.14Z" style="fill:rgb(119,188,130);fill-rule:nonzero;"/>
        <path d="M235.01,207.68C221.99,223.68 200.83,225.1 186.04,210.51C185.75,210.22 185.76,209.94 186.06,209.66L189.95,206.07C190.18,205.86 190.53,205.85 190.77,206.05C204.57,217.29 217.56,216.53 229.73,203.76C230.04,203.43 230.38,203.41 230.75,203.68L234.91,206.85C235.23,207.09 235.26,207.37 235.01,207.68Z" style="fill:rgb(119,188,130);fill-rule:nonzero;"/>
        <path d="M280.06,211.42C288.75,215.25 296.98,214.5 304.73,209.17C306.19,208.16 307.71,207.13 309.28,206.07C309.55,205.89 309.91,205.91 310.15,206.13L313.97,209.71C314.23,209.95 314.23,210.2 313.98,210.45C299.42,225.07 277.67,223.76 264.97,207.61C264.75,207.33 264.81,206.92 265.1,206.71L269.51,203.56C269.82,203.34 270.26,203.4 270.51,203.7C273.54,207.38 276.73,209.95 280.06,211.42Z" style="fill:rgb(119,188,130);fill-rule:nonzero;"/>
        <path d="M160.88,233.23C160.67,233.74 160.29,233.99 159.74,234L155.01,234.07C154.45,234.08 154.04,233.56 154.15,233.02C155.52,226.15 158.18,223.06 164.23,218.76C168.26,215.89 172.13,212.81 175.84,209.52C176.09,209.29 176.36,209.28 176.65,209.47L180.95,212.4C181.26,212.61 181.33,213.03 181.11,213.34C177.95,217.7 172.24,221.02 167.83,224.07C164.93,226.08 162.61,229.13 160.88,233.23Z" style="fill:rgb(119,188,130);fill-rule:nonzero;"/>
        <path d="M338.42,231.79C335.52,223.2 323.8,220.62 318.91,213.31C318.7,213.01 318.79,212.59 319.09,212.38L323.29,209.51C323.63,209.28 323.95,209.3 324.26,209.58C327.78,212.79 331.48,215.75 335.36,218.48C341.39,222.71 344.14,225.67 345.81,232.37C346.06,233.36 345.68,233.89 344.66,233.98C341.92,234.21 339.52,235.06 338.42,231.79Z" style="fill:rgb(119,188,130);fill-rule:nonzero;"/>
        <path d="M337.24,316.53C333.51,327.35 341.55,340.82 346.91,349.94C347.23,350.49 347.04,351.19 346.48,351.49L342.6,353.59C341.91,353.96 341.36,353.81 340.97,353.13C336.99,346.35 333.65,339.31 330.95,332.02C328.6,325.66 328.7,319.36 331.23,313.13C331.43,312.63 331.76,312.52 332.23,312.8L336.91,315.61C337.27,315.82 337.38,316.13 337.24,316.53Z" style="fill:rgb(119,188,130);fill-rule:nonzero;"/>
        <path d="M153.12,349.99C158.49,340.23 166.29,328.01 162.74,316.48C162.62,316.11 162.73,315.82 163.06,315.61L167.32,312.93C168.02,312.48 168.53,312.64 168.85,313.41C170.94,318.48 171.27,323.76 169.86,329.26C168.09,336.14 164.36,344.21 158.67,353.47C158.46,353.81 158.03,353.92 157.68,353.73L153.57,351.52C153.02,351.23 152.82,350.54 153.12,349.99Z" style="fill:rgb(119,188,130);fill-rule:nonzero;"/>
    </g>
</svg>
