<svg xmlns="http://www.w3.org/2000/svg" xmlns:xlink="http://www.w3.org/1999/xlink" width="48" height="48" viewBox="0 0 48 48"><defs><filter id="Path_30997" x="26.223" y="3.543" width="21.455" height="21.654" filterUnits="userSpaceOnUse"><feGaussianBlur stdDeviation="0.1"></feGaussianBlur></filter><clipPath id="clip-Permanent_results"><rect width="48" height="48"></rect></clipPath></defs><g id="Permanent_results" data-name="Permanent results" clip-path="url(#clip-Permanent_results)"><g id="Group_41038" data-name="Group 41038" transform="translate(-1324.808 -681.163)"><g id="Group_319" data-name="Group 319" transform="translate(1325.43 690.017)"><path id="Path_706" data-name="Path 706" d="M297.153,1010.638a21.861,21.861,0,0,1-1.346,3.369c-1.2,2-1.485,4.312-2.42,6.389a32.883,32.883,0,0,1-2.4,5.038,13.024,13.024,0,0,1-8.326,5.562,5.29,5.29,0,0,1-2.811-.414,14.931,14.931,0,0,1-9.221-10.067c-.121-.4-.225-.8-.337-1.2l.266-.094c.109.232.239.458.324.7a19.077,19.077,0,0,0,2.976,5.92,15.032,15.032,0,0,0,7.122,4.679,4.5,4.5,0,0,0,3.247-.363c3.56-1.564,6.444-3.838,7.817-7.647.759-2.108,1.509-4.219,2.286-6.32.225-.609.559-1.177.8-1.781.482-1.222.96-2.447,1.37-3.694a.888.888,0,0,0-.313-.8,10.665,10.665,0,0,0-3.243-1.339,8.031,8.031,0,0,1-2.224-.757,4.219,4.219,0,0,0-2.635-.19c-1.011.236-2.017.492-3.025.739-.216.053-.433.1-.7.166.145-.5.144-.508,1.97-.957.724-.178,1.451-.341,2.319-.544a16.548,16.548,0,0,1-7.975-10.339c-.207.374-.345.6-.464.841a24.655,24.655,0,0,1-9.2,10.343,26.342,26.342,0,0,0-2.79,2.276c-.116.1-.24.181-.36.271l-.159-.109a1.944,1.944,0,0,1,.324-.566,25.841,25.841,0,0,1,2.913-2.35,24.78,24.78,0,0,0,9.412-11.148c.1-.218.23-.424.435-.8a6.12,6.12,0,0,1,.262.658c1.328,5.552,4.491,9.475,10.019,11.308,1.254.416,2.521.808,3.744,1.3,3.814,1.547,5.315,4.523,4.34,8.539a10.383,10.383,0,0,1-2.564,4.823,7.247,7.247,0,0,1-.605.513l-.179-.151a5.643,5.643,0,0,1,.382-.543,9.608,9.608,0,0,0,2.624-8.334A4.718,4.718,0,0,0,297.153,1010.638Z" transform="translate(-255.754 -995.456)"></path><path id="Path_707" data-name="Path 707" d="M183.749,1064.824c.08.467.138.763.18,1.061.111.793.582,1.155,1.34.9,1.07-.354,1.96-.36,2.657.724.161.25.7.261,1.028.372.413-.206.823-.572,1.239-.579a2.536,2.536,0,0,1,1.472.479c1.8,1.369,3.5,2.884,5.345,4.2,1.554,1.105,3.249,2.015,4.9,2.985a1.781,1.781,0,0,1,1.1,2.063c-.033.15.166.421.328.532.572.391.439.8.119,1.263-.576.837-.824.98-1.379.62a.729.729,0,0,0-.882-.044,1.569,1.569,0,0,1-1.9-.261c-.994-.836-2.014-1.641-3-2.488a50.371,50.371,0,0,0-7.086-4.671,5.616,5.616,0,0,1-1.271-1.239.84.84,0,0,1-.072-.678c.138-.451.26-.84-.242-1.164-.091-.059-.067-.343-.048-.519a1.211,1.211,0,0,0-1.5-1.355c-.161.035-.32.084-.478.133-1.61.5-2.184-.559-2.147-1.958C183.449,1065.134,183.548,1065.07,183.749,1064.824Zm6.656,2.732a5.348,5.348,0,0,0-.867.6,7.594,7.594,0,0,0-.71.971c-.86,1.227-.728,1.687.548,2.477,2.127,1.316,4.263,2.623,6.319,4.045,1.316.91,2.495,2.02,3.734,3.042.888.732,1.465.669,2.128-.246q.374-.516.725-1.049c.554-.84.441-1.46-.434-1.941a56.528,56.528,0,0,1-10.531-7.4A4.852,4.852,0,0,0,190.4,1067.556Zm12.24,11.765a12.215,12.215,0,0,0,.561-1.239,1.05,1.05,0,0,0-.463-.311,12.017,12.017,0,0,0-.906.968Z" transform="translate(-183.446 -1054.986)"></path><path id="Path_708" data-name="Path 708" d="M348.449,1190.675c-.851,1.67-1.777,3.109-3.906,3.156-2.2.049-3.207-1.379-4.073-3.119A32.841,32.841,0,0,1,348.449,1190.675Zm-1.193.948a6.556,6.556,0,0,1-5.639-.006,2.916,2.916,0,0,0,3.068,1.774A2.749,2.749,0,0,0,347.256,1191.623Zm-.251-.43.006-.242c-1.427-.021-2.855-.053-4.282-.052a5.021,5.021,0,0,0-.995.236A5.623,5.623,0,0,0,347.005,1191.193Z" transform="translate(-318.201 -1162.795)"></path><path id="Path_709" data-name="Path 709" d="M395.408,1005.925a10.919,10.919,0,0,1-6.73-3.33c-1.284-1.431-2.636-4.623-2.278-5.525.147.34.267.571.35.816.7,2.048,1.5,4.023,3.289,5.413a12.2,12.2,0,0,0,4.883,2.125c.206.047.4.123.607.185Z" transform="translate(-357.566 -996.841)"></path><path id="Path_710" data-name="Path 710" d="M240.206,1136.571c-2.609.142-6.437-5.239-5.262-7.59C235.358,1132.582,236.907,1135.2,240.206,1136.571Z" transform="translate(-227.453 -1110.044)"></path><path id="Path_711" data-name="Path 711" d="M257.216,1032.876c-2.281,2.282-4.918,4.236-6.556,7.108l-.265-.16a3.169,3.169,0,0,1,.232-.6,23.238,23.238,0,0,1,4.191-4.683q1.067-.958,2.131-1.919Z" transform="translate(-240.9 -1027.352)"></path><path id="Path_712" data-name="Path 712" d="M287.936,1079.606a4.79,4.79,0,0,1,3.008-1.25,47.857,47.857,0,0,1,5.047.971c.082.017.139.152.353.4-.431-.061-.667-.075-.894-.129-.895-.214-1.795-.41-2.676-.669a4.707,4.707,0,0,0-3.929.6,6.385,6.385,0,0,1-.78.344Z" transform="translate(-273.117 -1066.59)"></path><path id="Path_713" data-name="Path 713" d="M394.123,1110.938a4.787,4.787,0,0,0,4.542-.2c.849-.48,1.011-.433,1.792.133-1.338.373-2.562.8-3.822,1.038A2.72,2.72,0,0,1,394.123,1110.938Z" transform="translate(-364.243 -1094.11)"></path><path id="Path_714" data-name="Path 714" d="M292.35,1110.935a1.2,1.2,0,0,1,1.635-.145,4.6,4.6,0,0,0,4.664.175,2.9,2.9,0,0,1-3.026,1.02A26.5,26.5,0,0,1,292.35,1110.935Z" transform="translate(-276.904 -1094.214)"></path><path id="Path_715" data-name="Path 715" d="M355.448,1156.358c1.213.883,2.3,1.062,3.333-.029a1.282,1.282,0,0,1-1.232,1.2A1.9,1.9,0,0,1,355.448,1156.358Z" transform="translate(-331.054 -1133.513)"></path><path id="Path_716" data-name="Path 716" d="M219.662,1084.084a4.839,4.839,0,0,1,.913.5,56.563,56.563,0,0,0,10.531,7.4c.875.481.988,1.1.434,1.941q-.351.532-.725,1.049c-.663.914-1.241.978-2.128.245-1.239-1.022-2.417-2.131-3.734-3.042-2.055-1.422-4.192-2.728-6.319-4.044-1.277-.79-1.408-1.25-.548-2.477a7.569,7.569,0,0,1,.71-.971A5.333,5.333,0,0,1,219.662,1084.084Zm2.6,3.221c-.038-.321-.016-.452-.063-.486a22.966,22.966,0,0,0-2.259-1.542.789.789,0,0,0-1.162.53c1.251,0,1.251,0,2.068.546C221.27,1086.634,221.689,1086.916,222.267,1087.305Z" transform="translate(-212.704 -1071.514)" fill="#e5eff1"></path><path id="Path_717" data-name="Path 717" d="M313.925,1157.639l-.808-.582a12.061,12.061,0,0,1,.906-.969,1.054,1.054,0,0,1,.463.311A12.214,12.214,0,0,1,313.925,1157.639Z" transform="translate(-294.726 -1133.304)" fill="#fff"></path><path id="Path_718" data-name="Path 718" d="M354.191,1198.682a2.748,2.748,0,0,1-2.571,1.768,2.916,2.916,0,0,1-3.068-1.774A6.558,6.558,0,0,0,354.191,1198.682Z" transform="translate(-325.136 -1169.854)" fill="#e5eff1"></path><path id="Path_719" data-name="Path 719" d="M354.651,1193.9a5.623,5.623,0,0,1-5.271-.058,5.01,5.01,0,0,1,.995-.236c1.427,0,2.855.031,4.282.052Z" transform="translate(-325.846 -1165.505)" fill="#e5eff1"></path><path id="Path_720" data-name="Path 720" d="M229.79,1093.878l-1.417-.953c-.817-.547-.817-.547-2.068-.546a.789.789,0,0,1,1.162-.53,23,23,0,0,1,2.259,1.542C229.774,1093.425,229.752,1093.557,229.79,1093.878Z" transform="translate(-220.226 -1078.086)"></path></g><g transform="matrix(1, 0, 0, 1, 1324.81, 681.16)" filter="url(#Path_30997)"><path id="Path_30997-2" data-name="Path 30997" d="M4.236,9.624H.978A.978.978,0,0,0,0,10.6v9.775a.978.978,0,0,0,.978.978H4.236a.978.978,0,0,0,.978-.978V10.6A.978.978,0,0,0,4.236,9.624Zm-1.629,10.1a.978.978,0,1,1,.978-.978A.978.978,0,0,1,2.607,19.725ZM15.64,3.818C15.64.826,13.685.5,12.708.5c-.822,0-1.2,1.6-1.382,2.354a4.933,4.933,0,0,1-1.034,2.4C8.969,6.578,8.275,8.266,6.662,9.86a.488.488,0,0,0-.145.347v8.707A.489.489,0,0,0,7,19.4a6.409,6.409,0,0,1,2.144.659,11.692,11.692,0,0,0,4.87,1.292h.116c1.742,0,3.8-.017,4.634-1.211a2.162,2.162,0,0,0,.25-1.818,3.221,3.221,0,0,0,.667-3.045,3.4,3.4,0,0,0,.379-3.237l0,0a2.949,2.949,0,0,0,.792-2,2.434,2.434,0,0,0-2.426-2.366H14.285C14.583,6.514,15.64,5.545,15.64,3.818Z" transform="translate(26.52 3.04)" fill="#e5eff1"></path></g></g></g></svg>