<?xml version="1.0" encoding="UTF-8" standalone="no"?>
<!DOCTYPE svg PUBLIC "-//W3C//DTD SVG 1.1//EN" "http://www.w3.org/Graphics/SVG/1.1/DTD/svg11.dtd">
<svg width="100%" height="100%" viewBox="0 0 142 142" version="1.1" xmlns="http://www.w3.org/2000/svg" xmlns:xlink="http://www.w3.org/1999/xlink" xml:space="preserve" xmlns:serif="http://www.serif.com/" style="fill-rule:evenodd;clip-rule:evenodd;stroke-miterlimit:10;">
    <g id="Réteg_2">
    </g>
    <g id="Réteg_7">
        <g>
            <path d="M137.53,69.02C137.53,107.28 107.75,138.3 71.02,138.3C34.29,138.3 4.51,107.28 4.51,69.02C4.51,30.76 30.69,3.49 67.42,3.49C104.15,3.49 137.53,30.75 137.53,69.02Z" style="fill:none;fill-rule:nonzero;stroke:rgb(63,97,170);stroke-width:2px;"/>
            <g>
                <path d="M56.02,21.64C57.1,18.11 61.45,11.94 65.63,15.51C68.76,18.18 68.76,25.69 68.2,29.32C67.99,30.7 67.1,31.57 66.83,33.02C66.61,34.23 66.78,36.16 66.91,37.41C67.18,39.99 68.19,41.55 69.15,43.93C71.07,48.7 69.54,54.47 68.66,59.27C67.18,67.32 61.37,75.53 61.98,83.75C62.74,94.05 72.32,102.46 71.39,112.74C70.5,122.66 60.79,133.69 50.66,127.81C47.41,125.92 45.41,120.22 44.46,116.76C42.97,111.29 42.7,105.55 41.6,99.98C38.45,84.18 21.7,59.69 33.24,44.65C35.72,41.42 38.87,38.85 42,36.31C43.92,34.75 45.97,33.14 48.39,32.8C51.16,32.41 54.89,36.12 57.48,34.38C61.12,31.93 55.38,29.86 55.14,26.84C55.09,26.24 55.12,25.64 55.2,25.05C55.34,23.88 55.68,22.75 56.02,21.64ZM36.04,39.41C35.39,36.72 33.03,34.75 30.87,37.45C30.43,37.99 30.23,38.69 30.06,39.38C29.56,41.36 29.23,43.38 29.06,45.42C28.99,46.31 29.08,47.42 29.87,47.76M56.28,21.23C49.85,12.67 44.41,27.61 50.96,28.37M41.87,34.33C42.24,27.5 34.19,25.21 33.6,33.54C33.52,34.68 34.78,35.05 35.73,35.61M47.63,23.28C46.62,23.71 45.88,22.11 44.82,21.86C43.8,21.62 42.97,22.69 42.42,23.62C41.71,24.83 41,26.05 40.29,27.26M49.88,33.02C50.78,31.81 51.02,30.09 50.47,28.66M40.26,28.88C40.31,28.36 40.35,27.85 40.4,27.33M43.81,22.97C44.33,22.81 44.84,22.66 45.36,22.5C46.08,22.27 43.1,22.68 43.81,22.97ZM64.73,37.04C62.62,36.03 60.32,35.45 58,35.33M52.36,61.05C54.15,62.86 56.72,63.8 59.2,63.55C61.68,63.31 64.04,61.89 65.48,59.76M49.77,62.01C48.93,63.38 47.48,64.17 46.21,65.11C44.94,66.05 43.72,67.4 43.76,69.02M44.48,103.62C45.03,102.43 45.59,101.25 46.14,100.06C47.29,97.6 48.41,94.53 46.9,92.29" style="fill:none;fill-rule:nonzero;stroke:rgb(117,189,128);stroke-width:2px;"/>
                <path d="M85.06,24.89C85.16,25.48 85.21,26.07 85.18,26.68C85.04,29.71 79.38,31.99 83.11,34.31C85.76,35.95 89.35,32.1 92.14,32.38C94.57,32.63 96.67,34.16 98.65,35.65C101.87,38.07 105.11,40.52 107.7,43.65C119.76,58.23 103.89,83.35 101.31,99.26C100.4,104.86 100.34,110.62 99.04,116.14C98.22,119.64 96.41,125.41 93.23,127.42C83.32,133.69 73.23,123.04 71.98,113.16C70.69,102.92 79.96,94.15 80.35,83.83C80.66,75.6 74.57,67.61 72.8,59.63C71.75,54.87 70.01,49.16 71.77,44.32C72.64,41.91 73.59,40.32 73.77,37.72C73.86,36.47 73.96,34.53 73.69,33.33C73.37,31.89 72.45,31.06 72.19,29.68C71.51,26.07 71.24,18.57 74.27,15.78C78.32,12.06 82.89,18.06 84.09,21.54C84.48,22.62 84.87,23.74 85.06,24.89ZM111.17,46.62C111.95,46.25 112,45.14 111.89,44.25C111.65,42.22 111.25,40.21 110.68,38.26C110.48,37.58 110.26,36.89 109.8,36.36C107.55,33.75 105.25,35.8 104.7,38.52M89.4,28.06C95.91,27.05 89.95,12.33 83.83,21.13M104.87,34.72C105.81,34.12 107.05,33.7 106.93,32.57C106.05,24.27 98.09,26.86 98.7,33.68M100.02,26.55C99.27,25.37 98.51,24.18 97.76,23C97.18,22.09 96.32,21.06 95.3,21.33C94.25,21.62 93.56,23.24 92.54,22.85M89.9,28.33C89.41,29.78 89.7,31.49 90.65,32.67M99.92,26.61C99.99,27.13 100.05,27.64 100.12,28.16M94.8,21.97C95.32,22.11 95.84,22.24 96.36,22.38C97.05,22.07 94.06,21.78 94.8,21.97ZM82.61,35.28C80.3,35.49 78.02,36.16 75.94,37.25M76,59.99C77.51,62.06 79.92,63.38 82.4,63.53C84.88,63.68 87.42,62.64 89.15,60.77M98.03,68.4C98.02,66.78 96.75,65.48 95.44,64.59C94.14,63.7 92.66,62.97 91.78,61.63M95.71,91.79C94.28,94.09 95.51,97.11 96.75,99.52C97.35,100.68 97.94,101.85 98.54,103.01" style="fill:none;fill-rule:nonzero;stroke:rgb(117,189,128);stroke-width:2px;"/>
            </g>
        </g>
    </g>
</svg>
