<?xml version="1.0" encoding="UTF-8" standalone="no"?>
<!DOCTYPE svg PUBLIC "-//W3C//DTD SVG 1.1//EN" "http://www.w3.org/Graphics/SVG/1.1/DTD/svg11.dtd">
<svg width="100%" height="100%" viewBox="0 0 11667 8334" version="1.1" xmlns="http://www.w3.org/2000/svg" xmlns:xlink="http://www.w3.org/1999/xlink" xml:space="preserve" xmlns:serif="http://www.serif.com/" style="fill-rule:evenodd;clip-rule:evenodd;stroke-linejoin:round;stroke-miterlimit:2;">
    <g transform="matrix(4.16667,0,0,4.16667,0,0)">
        <g transform="matrix(1.08298,0,0,1.08298,-23.313,-82.9001)">
            <path d="M1706.33,522.248C1706.33,522.248 1794.29,642.921 1937.5,646.556C2080.71,650.191 2173.03,700.349 2096.7,760.686C2020.37,821.022 1761.58,834.107 1668.53,694.534C1575.48,554.96 1688.16,462.64 1706.33,522.248Z" style="fill:rgb(254,229,204);"/>
        </g>
        <g transform="matrix(1.08298,0,0,1.08298,-23.313,-82.9001)">
            <path d="M1486.26,233.689C1418.94,162.904 1231.29,198.002 1227.88,325.741C1225.97,396.847 1289.46,467.951 1289.46,467.951L1483.73,492.71C1483.73,492.71 1530.7,425.415 1529.43,368.278C1528.16,311.14 1515.47,275.589 1486.26,233.689Z" style="fill:rgb(55,40,57);"/>
        </g>
        <g transform="matrix(1.08298,0,0,1.08298,-23.313,-82.9001)">
            <path d="M1422.66,220.924C1422.66,217.749 1401.08,179.661 1445.2,151.725C1489.32,123.792 1568.99,162.201 1558.2,214.259C1547.41,266.317 1493.45,283.142 1493.45,283.142L1422.66,220.924Z" style="fill:rgb(55,40,57);"/>
        </g>
        <g transform="matrix(0.998379,0,0,1.08298,-11.63,-82.9001)">
            <path d="M870.915,669.575C652.832,965.915 681.908,983.332 356.24,1140.08C30.571,1296.83 71.279,1666.05 466.735,1815.83C862.191,1965.61 1379.77,1656.7 1795.58,1764.13C2211.39,1871.57 2689.72,1826.07 2660.64,1571.79C2631.56,1317.51 2551.6,888.072 2223.03,856.722C2032.08,838.505 1899.08,870.1 1793.1,846.398C1634.26,810.876 1183.88,244.31 870.915,669.575Z" style="fill:rgb(254,229,204);"/>
        </g>
        <g transform="matrix(1.08298,0,0,1.08298,-23.313,-82.9001)">
            <path d="M1355.33,605.488C1336.89,608.344 1307.41,611.896 1287.94,617.252C1258.86,625.249 1233.17,641.602 1197.55,701.212C1161.93,760.821 1133.36,835.084 1133.36,835.084L1240.72,877.073L1255.59,848.783C1264.19,906.114 1248.94,871.064 1295.94,953.097C1310.56,978.612 1345,1033.07 1349.45,1059.93C1359.31,1119.41 1331.56,1177 1331.56,1177C1331.56,1177 1413.7,1203.17 1566.36,1206.07C1719.02,1208.98 1793.9,1134.11 1793.9,1134.11C1793.9,1134.11 1700.85,1048.33 1694.3,1029.43C1687.76,1010.53 1697.31,774.263 1693.68,724.104C1690.04,673.945 1680.13,660.494 1659.78,640.14C1639.43,619.786 1523.12,585.982 1509.3,585.982C1482.46,585.982 1423.08,610.762 1390.01,608.32C1381.73,620.483 1369.85,636.589 1369.85,636.589L1355.33,605.488Z" style="fill:rgb(96,169,163);"/>
        </g>
        <g transform="matrix(1.08298,0,0,1.08298,-23.313,-82.9001)">
            <path d="M1479.09,465.399C1479.09,465.399 1478.94,521.832 1495.99,568.869C1506.78,598.634 1515.4,585.72 1497.61,616.011C1486.74,634.522 1398.15,744.526 1398.15,744.526L1362.01,628.749C1362.01,628.749 1370.8,619.816 1373.22,592.002C1375.64,564.19 1364.15,523.074 1364.15,523.074C1364.15,523.074 1443.62,535.741 1479.09,465.399Z" style="fill:rgb(247,158,126);"/>
        </g>
        <g transform="matrix(1.08298,0,0,1.08298,-23.313,-82.9001)">
            <path d="M1479.09,466.036C1479.09,466.036 1479.76,508.857 1490.56,551.103C1467.67,585.468 1427.22,631.66 1361.98,617.501C1367.65,610.595 1372.35,602 1373.22,592.002C1375.64,564.19 1364.15,523.074 1364.15,523.074C1364.15,523.074 1443.62,536.377 1479.09,466.036Z" style="fill:rgb(238,136,98);"/>
        </g>
        <g transform="matrix(1.08298,0,0,1.08298,-23.313,-82.9001)">
            <path d="M1263.22,896.044C1266.09,903.616 1275.19,916.879 1295.94,953.097C1310.56,978.612 1345,1033.07 1349.45,1059.93C1356.52,1102.55 1344.27,1144.19 1336.76,1164.38C1378.4,1152.35 1464.8,1127.12 1495.24,1116.25C1535.95,1101.71 1586.11,1085.72 1602.83,1047.92C1619.55,1010.12 1650.04,884.926 1650.04,884.926L1636.99,881.45L1572.3,881.45C1572.3,881.45 1489.43,881.45 1468.34,882.904C1447.26,884.358 1368.77,907.839 1335.31,899.623C1301.86,891.407 1280.76,894.01 1263.22,896.044Z" style="fill:rgb(68,135,133);"/>
        </g>
        <g transform="matrix(1.08298,0,0,1.08298,-23.313,-82.9001)">
            <path d="M2490.49,1669.49L298.658,1724.74L258.778,1669.49L395.187,1369.24L2433.94,1367.82C2448.13,1440.59 2457.19,1511.17 2463.58,1571.79C2467.47,1608.7 2461.51,1641.21 2447.3,1669.49L2490.49,1669.49Z" style="fill:rgb(254,238,241);"/>
        </g>
        <g transform="matrix(1.08298,0,0,1.08298,-23.313,-82.9001)">
            <path d="M2458.87,1529.75C2442.99,1530.95 2428.72,1531.57 2417.2,1531.34C2343.05,1529.89 2325.6,1521.16 2250,1540.06C2174.4,1558.96 2062.45,1554.6 1919.97,1563.32C1777.49,1572.05 1572.49,1556.05 1492.53,1551.69C1412.56,1547.33 1415.47,1525.52 1367.49,1519.71C1319.51,1513.89 1239.55,1502.26 1249.73,1547.33C1259.91,1592.4 1348.59,1672.36 1067.99,1656.37C787.392,1640.38 701.613,1601.12 646.365,1593.85C591.117,1586.59 567.855,1554.6 495.162,1579.32C422.468,1604.03 386.793,1594.13 390.482,1574.95C394.172,1555.78 327.274,1587.43 343.957,1559.81C360.64,1532.19 453.082,1479.18 504.654,1477.63C556.225,1476.09 664.912,1500.69 698.528,1470.22C732.145,1439.74 789.481,1388.8 789.481,1388.8L2443.24,1419.32C2449.64,1457.7 2454.72,1494.92 2458.87,1529.75Z" style="fill:rgb(240,220,219);"/>
        </g>
        <g transform="matrix(1.08298,0,0,1.08298,-23.313,-82.9001)">
            <path d="M831.717,1378.56C831.717,1378.56 846.255,1459.25 851.344,1488.32C856.433,1517.4 826.63,1560.29 809.182,1552.3C791.734,1544.3 550.39,1541.39 530.036,1535.58C509.682,1529.76 495.14,1487.6 511.134,1453.43C527.128,1419.27 556.761,1351.37 573.203,1349.7C589.645,1348.03 798.724,1401.72 831.717,1378.56Z" style="fill:white;"/>
        </g>
        <g transform="matrix(1.08298,0,0,1.08298,-23.313,-82.9001)">
            <path d="M831.717,1378.56C831.717,1378.56 835.96,1402.1 840.662,1428.33C830.477,1431.61 816.688,1434.47 798.81,1435.21C756.044,1436.98 720.3,1421.76 690.858,1413.76C661.416,1405.77 644.699,1419.22 603.626,1407.22C577.198,1399.5 564.77,1376.59 559.262,1361.23C564.43,1354.43 569.207,1350.11 573.203,1349.7C589.645,1348.03 798.724,1401.72 831.717,1378.56Z" style="fill:rgb(230,231,232);"/>
        </g>
        <g transform="matrix(1.08298,0,0,1.08298,-23.313,-82.9001)">
            <path d="M658.256,1377.32C658.256,1377.32 613.184,1402.77 573.203,1349.7C513.925,1271.02 521.994,1199.95 574.652,1121.44C614.635,1061.83 690.235,1048.01 759.295,1061.83C828.356,1075.64 861.068,1125.8 907.592,1155.6C954.116,1185.41 1036.99,1176.68 1036.99,1176.68C1036.99,1176.68 966.473,1317.71 973.016,1369.32C979.559,1420.94 1143.12,1432.57 1143.12,1432.57C1143.12,1432.57 971.564,1463.83 905.411,1437.66C839.259,1411.49 829.81,1400.58 826.902,1394.04C823.994,1387.5 687.955,1361.02 658.256,1377.32Z" style="fill:rgb(135,64,57);"/>
        </g>
        <g transform="matrix(1.08298,0,0,1.08298,-23.313,-82.9001)">
            <path d="M587.885,1224.05C588.287,1223.94 728.404,1187.1 779.669,1123.57L782.231,1125.63C730.273,1190.02 589.141,1227.12 588.735,1227.23L587.885,1224.05ZM574.858,1196.41C575.298,1196.31 728.442,1161.64 768.057,1114.1L770.582,1116.2C730.237,1164.61 576.037,1199.52 575.594,1199.62L574.858,1196.41ZM741.055,1177.21C741.159,1177.13 777.959,1146.55 809.266,1143.13L809.612,1146.4C779.315,1149.71 743.259,1179.66 743.155,1179.75L741.055,1177.21ZM566.324,1245.56C566.334,1245.82 569.929,1336.78 617.91,1367.7L616.133,1370.47C566.708,1338.62 563.052,1245.96 563.04,1245.7L566.324,1245.56Z" style="fill:rgb(174,87,80);"/>
        </g>
        <g transform="matrix(1.08298,0,0,1.08298,-23.313,-82.9001)">
            <path d="M2454.02,1491.36C2387.61,1495.03 2258.5,1479.56 2235.52,1477.26C2206.44,1474.35 1781.91,1478.71 1668.51,1468.54C1555.11,1458.36 1506.4,1484.53 1432.98,1483.08C1359.56,1481.62 1254.15,1486.71 1223.62,1477.26C1193.09,1467.81 1185.82,1459.81 1185.82,1459.81C1185.82,1459.81 1239.62,1552.13 1224.35,1602.29C1209.08,1652.45 1169.83,1643.73 1089.86,1637.91C1009.9,1632.09 842.699,1601.56 773.64,1576.85C704.582,1552.13 685.683,1571.03 630.434,1560.85C575.185,1550.67 545.288,1550.36 530.748,1544.55C516.208,1538.73 464.596,1567.08 437.699,1574.35C410.802,1581.62 423.884,1562.72 449.327,1542.73C474.77,1522.74 492.943,1507.83 490.399,1505.29C487.856,1502.75 468.046,1511.65 445.511,1526.92C422.976,1542.18 389.37,1562.16 373.907,1559.81C345.355,1555.47 387.565,1537.34 398.077,1523.83C398.077,1523.83 375.179,1539.45 360.64,1532.19C346.1,1524.92 367.91,1511.83 387.899,1501.29C407.889,1490.75 448.964,1468.94 473.316,1451.5C497.668,1434.05 514.357,1434.16 553.247,1443.98C592.136,1453.79 663.145,1481.62 682.409,1482.71C701.674,1483.8 801.635,1494.7 905.588,1498.33C1009.54,1501.97 1038.62,1499.06 1038.62,1499.06C1038.62,1499.06 995,1460.53 971.011,1416.92C947.022,1373.3 948.028,1337.49 948.028,1337.49L881.876,1332.41C881.876,1332.41 873.154,1260.44 857.16,1242.26C841.166,1224.09 826.753,1194.16 826.753,1194.16L838.68,1183.98C838.68,1183.98 837.623,1183.18 913.225,1194.81C988.827,1206.44 1017.18,1185.77 1067.34,1163.96C1117.5,1142.15 1209.09,1134.15 1302.14,1155.96C1395.19,1177.77 1574.01,1185.76 1632.89,1172.67C1691.77,1159.59 1763.74,1109.43 1888.77,1106.52C2013.81,1103.61 2079.23,1190.12 2152.65,1215.56C2204.32,1233.47 2332.75,1245.43 2407.1,1252.98C2429.49,1333.65 2444.02,1416.62 2454.02,1491.36Z" style="fill:rgb(249,173,157);"/>
        </g>
        <g transform="matrix(1.08298,0,0,1.08298,-23.313,-82.9001)">
            <path d="M919.728,1195.74C990.498,1205.23 1018.64,1185.13 1067.34,1163.96C1117.5,1142.15 1209.09,1134.15 1302.14,1155.96C1316.18,1159.25 1332.19,1162.23 1349.44,1164.86C1328.63,1169.42 1303.32,1173.31 1277.64,1173.31C1215.85,1173.31 1199.85,1171.86 1140.25,1195.85C1080.64,1219.83 1066.1,1230.01 1036.29,1230.01C1006.49,1230.01 1007.22,1226.38 990.497,1221.29C973.778,1216.2 972.325,1217.65 949.062,1214.02C936.306,1212.03 925.892,1203.93 919.728,1195.74Z" style="fill:rgb(236,150,129);"/>
        </g>
        <g transform="matrix(1.08298,0,0,1.08298,-23.313,-82.9001)">
            <path d="M1410.38,1172.34C1446.64,1175.86 1484.56,1178.05 1519.33,1178.75L1497.02,1472.49C1476.17,1475.66 1445.14,1483.26 1432.98,1483.08C1420.82,1482.89 1409.35,1481.86 1396.72,1482.79C1400.41,1449.33 1413.25,1391.68 1422.3,1334.69C1431.35,1277.71 1418.58,1209.72 1410.38,1172.34Z" style="fill:rgb(236,150,129);"/>
        </g>
        <g transform="matrix(1.08298,0,0,1.08298,-23.313,-82.9001)">
            <path d="M2228.48,1231.14C2263.27,1236.33 2303.81,1242.46 2343.07,1246.45C2331.29,1266.66 2304.39,1285.76 2305.53,1355.05C2306.68,1424.34 2327.82,1465.52 2325.85,1486.32C2283.5,1482.67 2246.78,1478.39 2235.52,1477.26L2235.02,1353.6L2228.48,1231.14Z" style="fill:rgb(236,150,129);"/>
        </g>
        <g transform="matrix(1.08298,0,0,1.08298,-23.313,-82.9001)">
            <path d="M933.411,1336.37L881.876,1332.41C881.623,1329.11 881.134,1325.68 880.455,1322.16C877.385,1301.62 869.403,1256.18 857.16,1242.26C847.374,1231.15 838.181,1215.63 832.518,1205.25C850.21,1209.7 886.557,1223.47 912.585,1264.37C939.685,1306.96 936.49,1328.5 933.411,1336.37Z" style="fill:rgb(236,150,129);"/>
        </g>
        <g transform="matrix(1.08298,0,0,1.08298,-23.313,-82.9001)">
            <path d="M1237.09,875.655C1229.1,900.582 1208.85,940.621 1196.35,961.459C1183.84,982.298 1104.06,1073.82 1080.89,1089.47C1057.71,1105.11 1037.24,1141.84 1029.97,1149.11C1022.7,1156.38 986.623,1198.08 972.81,1204.99C958.997,1211.89 957.18,1200.62 957.18,1200.62C957.18,1200.62 948.458,1207.17 940.462,1204.26C932.465,1201.35 933.554,1194.81 933.554,1194.81C933.554,1194.81 923.652,1201.71 918.198,1198.44C912.745,1195.17 911.746,1189.72 911.746,1189.72C911.746,1189.72 899.071,1194.76 898.526,1184.4C897.98,1174.04 933.609,1093.16 941.604,1085.16C949.599,1077.17 979.17,1080.86 989.712,1071.77C1000.25,1062.69 1107.4,932.569 1114.92,920.021C1122.45,907.473 1145.78,865.107 1152.14,842.432L1237.09,875.655Z" style="fill:rgb(247,158,126);"/>
        </g>
        <g transform="matrix(1.08298,0,0,1.08298,-23.313,-82.9001)">
            <path d="M1237.09,875.655C1234.81,882.764 1231.54,891.102 1227.73,899.872L1144.89,861.925C1148,854.731 1150.58,847.989 1152.14,842.432L1237.09,875.655Z" style="fill:rgb(238,136,98);"/>
        </g>
        <g transform="matrix(1.08298,0,0,1.08298,-23.313,-82.9001)">
            <path d="M1086.07,1085.51C1084.13,1087.12 1082.39,1088.45 1080.89,1089.47C1057.71,1105.11 1037.24,1141.84 1029.97,1149.11C1022.93,1156.15 988.817,1195.55 974.147,1204.25C972.739,1204.3 970.985,1204.43 968.812,1204.72C960.453,1205.81 961.907,1191.63 961.907,1191.63C972.779,1166.74 1033.43,1098.28 1053.5,1089.5C1058.22,1087.43 1070.96,1086.27 1086.07,1085.51Z" style="fill:rgb(238,136,98);"/>
        </g>
        <g transform="matrix(1.08298,0,0,1.08298,-23.313,-82.9001)">
            <path d="M258.778,1669.49L2490.49,1669.49L2446.74,1670.59C2422.68,1717.58 2375.73,1752.81 2313.35,1777.08L258.778,1777.08L258.778,1669.49Z" style="fill:rgb(240,220,219);"/>
        </g>
        <g transform="matrix(1.08298,0,0,1.08298,-23.313,-82.9001)">
            <path d="M1433.51,1152.64C1433.51,1152.64 1586.17,1165.72 1634.15,1152.64C1708.34,1132.41 1863.96,1060.49 1961.28,1106.11C1966.45,1108.53 2165.25,1181.9 2176.45,1184.62C2230.24,1197.71 2242.24,1209.71 2276.04,1226.78C2309.84,1243.86 2272.41,1220.97 2265.14,1322.74C2257.87,1424.51 2295.28,1480.31 2270.76,1501.84C2246.24,1523.38 2105.21,1510.29 2049.96,1510.29C1994.71,1510.29 1868.23,1511.74 1789.72,1508.84C1711.21,1505.93 1609.44,1503.02 1542.56,1508.84C1475.68,1514.65 1461.14,1523.38 1432.06,1516.11C1402.98,1508.84 1445.14,1439.05 1445.14,1327.1C1445.14,1215.15 1401.53,1172.99 1410.25,1158.45C1418.97,1143.91 1433.51,1152.64 1433.51,1152.64Z" style="fill:white;"/>
        </g>
        <g transform="matrix(1.08298,0,0,1.08298,-23.313,-82.9001)">
            <path d="M1768.4,1336.15C1768.4,1336.15 1798.57,1408.49 1863.63,1439.38C1928.69,1470.28 1946.86,1490.99 1917.06,1494.99C1887.25,1498.99 1816.74,1481.18 1785.48,1430.66C1754.22,1380.13 1756.04,1324.52 1768.4,1336.15ZM1531.78,1175.14C1538.32,1175.14 1592.12,1186.4 1611.38,1175.14C1630.65,1163.87 1668.81,1279.82 1671.36,1327.07C1673.9,1374.32 1595.49,1223.2 1566.36,1206.07C1537.23,1188.95 1519.33,1178.75 1531.78,1175.14ZM1952.41,1107.44C1995.73,1127.42 2039.64,1147.31 2066.32,1166.81C2093,1186.31 2116.25,1162.36 2125.24,1167.67C2106.7,1180.95 2085.4,1198.89 2070.96,1246.54C2049.15,1318.51 1945.2,1323.6 1937.93,1317.05C1930.66,1310.51 1967.01,1295.98 1998.27,1252.36C2029.52,1208.74 2008.68,1194.92 1989.18,1164.03C1969.67,1133.15 1961.05,1123.72 1952.41,1107.44Z" style="fill:rgb(230,231,232);"/>
        </g>
        <g transform="matrix(1.08298,0,0,1.08298,-23.313,-82.9001)">
            <path d="M1637.92,878.425C1637.92,878.425 1595.44,1018.62 1575.09,1045.51C1554.74,1072.41 1424.61,1122.57 1357.74,1129.11C1290.86,1135.65 1225.43,1141.47 1218.89,1146.56C1212.35,1151.65 1167.27,1170.19 1149.46,1172.37C1131.65,1174.55 1124.02,1176.73 1121.47,1177.82C1118.93,1178.91 1054.96,1214.53 1037.15,1220.71C1019.34,1226.89 1013.52,1216.71 1013.52,1216.71C1013.52,1216.71 1004.8,1219.26 998.617,1213.8C992.439,1208.35 993.53,1207.26 993.53,1207.26C993.53,1207.26 991.347,1206.17 982.988,1207.26C974.628,1208.35 976.082,1194.18 976.082,1194.18C986.954,1169.29 1047.61,1100.82 1067.68,1092.04C1079.31,1086.95 1139.65,1087.32 1164,1085.86C1188.35,1084.41 1205.07,1086.22 1213.07,1083.68C1221.06,1081.14 1494.75,982.265 1500.57,977.903C1506.38,973.541 1529.97,853.429 1529.97,853.429L1637.92,878.425Z" style="fill:rgb(247,158,126);"/>
        </g>
        <g transform="matrix(1.08298,0,0,1.08298,-23.313,-82.9001)">
            <path d="M1637.92,878.425C1637.92,878.425 1634.63,889.282 1629.44,905.524L1525.33,876.516C1528.12,862.853 1529.97,853.429 1529.97,853.429L1637.92,878.425Z" style="fill:rgb(238,136,98);"/>
        </g>
        <g transform="matrix(1.08298,0,0,1.08298,-23.313,-82.9001)">
            <path d="M1631.26,634.472C1631.13,634.476 1586.27,635.682 1572.08,679.7C1558.83,720.829 1524.83,829.461 1518.77,848.829L1651.34,879.269L1650.04,884.926L1511.35,853.083L1512.29,850.092C1512.4,849.733 1551.49,724.711 1566.56,677.93C1582.01,630 1630.91,628.684 1631.05,628.679L1631.26,634.472Z" style="fill:rgb(124,202,196);fill-rule:nonzero;"/>
        </g>
        <g transform="matrix(1.08298,0,0,1.08298,-23.313,-82.9001)">
            <path d="M1534.29,586.142L1410.71,749.341L1400.81,727.375L1507.57,580.454L1534.29,586.142Z" style="fill:rgb(237,137,75);"/>
        </g>
        <g transform="matrix(1.08298,0,0,1.08298,-23.313,-82.9001)">
            <path d="M1415.02,743.657L1410.71,749.341L1400.81,727.375L1407.61,718.021L1415.02,743.657Z" style="fill:rgb(200,110,55);"/>
        </g>
        <g transform="matrix(1.08298,0,0,1.08298,-23.313,-82.9001)">
            <path d="M1361.34,600.883L1415.8,762.79C1415.8,762.79 1397.63,775.148 1397.26,772.603C1396.9,770.058 1339.53,604.882 1339.53,604.882L1361.34,600.883Z" style="fill:rgb(237,137,75);"/>
        </g>
        <g transform="matrix(1.08298,0,0,1.08298,-23.313,-82.9001)">
            <path d="M530.702,1427.88L531.266,1427.87C535.636,1427.79 553.461,1427.47 586.854,1443.55C603.7,1451.66 633.955,1459.59 666.624,1465.37C699.33,1471.16 734.289,1474.77 760.571,1474.23C768.701,1474.06 776.227,1473.83 783.057,1473.62C822.431,1472.42 839.991,1471.88 844.874,1488.4L837.083,1490.7C833.975,1480.18 818.341,1480.66 783.281,1481.73C776.514,1481.94 769.053,1482.17 760.729,1482.34C733.841,1482.89 698.317,1479.24 665.225,1473.39C631.909,1467.49 600.872,1459.31 583.323,1450.86C551.654,1435.61 535.382,1435.91 531.394,1435.98L530.797,1435.99L530.702,1427.88Z" style="fill:rgb(230,231,232);fill-rule:nonzero;"/>
        </g>
        <g transform="matrix(1.08298,0,0,1.08298,-23.313,-82.9001)">
            <path d="M586.121,1259.39C586.121,1259.39 590.483,1323.36 636.28,1356.07C682.076,1388.79 759.134,1407.69 810.019,1404.78C860.905,1401.87 884.993,1364.37 889.256,1318.09C893.519,1271.82 835.827,1203.24 835.827,1203.24C835.827,1203.24 845.277,1197.78 832.556,1158.89C819.835,1120 794.393,1124.36 787.486,1133.81C780.579,1143.26 788.576,1163.61 797.3,1176.7C806.023,1189.78 825.65,1204.68 824.923,1207.59C824.197,1210.5 798.752,1207.23 784.577,1192.69C770.401,1178.15 734.782,1191.96 728.604,1192.69C722.425,1193.42 676.623,1234.85 586.121,1259.39Z" style="fill:rgb(249,173,157);"/>
        </g>
        <g transform="matrix(1.08298,0,0,1.08298,-23.313,-82.9001)">
            <path d="M730.105,1238.09C730.105,1238.09 740.943,1247.44 733.656,1266.17C726.37,1284.9 711.646,1288.9 711.646,1288.9C711.646,1288.9 729.726,1269.03 730.105,1238.09Z" style="fill:rgb(55,40,57);"/>
        </g>
        <g transform="matrix(1.08298,0,0,1.08298,-23.313,-82.9001)">
            <path d="M696.313,1330.26C696.313,1330.26 702.445,1351.72 694.473,1361.13C686.501,1370.54 680.98,1369.51 680.98,1369.51C680.98,1369.51 694.473,1361.13 696.313,1330.26Z" style="fill:rgb(55,40,57);"/>
        </g>
        <g transform="matrix(1.08298,0,0,1.08298,-23.313,-82.9001)">
            <path d="M675.346,1326.34C673.165,1326.34 665.534,1336.05 661.535,1347.54C657.535,1359.04 660.081,1370.14 660.081,1370.14C660.081,1370.14 652.809,1362.41 654.446,1344.77C656.083,1327.13 674.073,1313.06 675.346,1326.34Z" style="fill:rgb(135,64,57);"/>
        </g>
        <g transform="matrix(1.08298,0,0,1.08298,-23.313,-82.9001)">
            <path d="M687.335,1284.46C687.335,1281.91 683.517,1265.74 689.879,1250.65C696.24,1235.57 709.87,1231.75 709.87,1231.75C709.87,1231.75 700.782,1226.85 690.06,1236.3C679.338,1245.75 676.793,1255.2 676.793,1269.92C676.793,1284.64 685.698,1289.91 687.335,1284.46Z" style="fill:rgb(135,64,57);"/>
        </g>
        <g transform="matrix(1.08298,0,0,1.08298,-23.313,-82.9001)">
            <path d="M804.396,1335.42C804.436,1335.52 818.356,1371.41 789.481,1388.8L786.187,1384.64C811.465,1369.42 798.932,1337.09 798.897,1337L804.396,1335.42Z" style="fill:rgb(135,64,57);fill-rule:nonzero;"/>
        </g>
        <g transform="matrix(1.08298,0,0,1.08298,-23.313,-82.9001)">
            <path d="M704.598,1334.25C706.692,1334.25 719.936,1340.02 729.631,1347.58C735.549,1352.19 740.392,1357.59 741.264,1363.06C742.008,1367.73 743.163,1369.59 744.569,1369.74C746.445,1369.94 749.295,1368.24 752.498,1365.9C756.28,1363.13 760.22,1358.61 762.381,1353.12C764.051,1348.88 764.646,1344.05 763.232,1339.04L768.82,1337.47C770.616,1343.84 769.88,1349.92 767.788,1355.24C765.192,1361.83 760.464,1367.26 755.927,1370.58C751.682,1373.69 747.617,1375.9 743.956,1375.51C739.823,1375.07 736.793,1371.83 735.54,1363.97C734.937,1360.18 730.966,1355.97 726.063,1352.14C717.278,1345.29 706.173,1340.07 704.598,1340.07L704.598,1334.25Z" style="fill:rgb(220,129,105);fill-rule:nonzero;"/>
        </g>
        <g transform="matrix(1.08298,0,0,1.08298,-23.313,-82.9001)">
            <path d="M812.179,1146.51C812.179,1146.51 804.546,1130.7 797.458,1140.52C790.369,1150.33 807.636,1175.59 815.268,1181.23C822.901,1186.86 814.177,1168.32 818.539,1168.51C822.901,1168.69 825.263,1187.04 829.079,1184.13C832.896,1181.23 827.081,1154.88 821.265,1155.06C815.449,1155.24 813.452,1168.51 810.906,1160.88C808.361,1153.24 802.545,1145.42 806.726,1149.24C810.906,1153.06 815.995,1152.51 812.179,1146.51Z" style="fill:rgb(236,150,129);"/>
        </g>
        <g transform="matrix(1.08298,0,0,1.08298,-23.313,-82.9001)">
            <path d="M1451.32,1174.05C1451.45,1174.26 1495.92,1247.16 1498.12,1346.81C1499.03,1388.02 1496.66,1414.01 1495.05,1431.72C1492.89,1455.52 1492.15,1463.66 1503.05,1474.17L1499.03,1478.35C1486.13,1465.91 1486.93,1457.06 1489.28,1431.19C1490.88,1413.62 1493.22,1387.83 1492.32,1346.92C1490.16,1248.85 1446.47,1177.24 1446.34,1177.03L1451.32,1174.05Z" style="fill:rgb(230,231,232);fill-rule:nonzero;"/>
        </g>
        <g transform="matrix(1.08298,0,0,1.08298,-23.313,-82.9001)">
            <path d="M2132.18,1188.87C2132.35,1189.1 2192.14,1269.56 2144.03,1359.86L2138.92,1357.13C2185.3,1270.07 2127.67,1192.5 2127.5,1192.28L2132.18,1188.87Z" style="fill:rgb(230,231,232);fill-rule:nonzero;"/>
        </g>
        <g transform="matrix(1.08298,0,0,1.08298,-23.313,-82.9001)">
            <path d="M1688.51,1168.95C1688.75,1169.2 1774.54,1258.62 1819.79,1338.9C1841.95,1378.21 1873,1408.63 1910.81,1429.35C1949.03,1450.3 1994.19,1461.37 2044.07,1461.73L2044.05,1467.53C1993.16,1467.16 1947.07,1455.85 1908.01,1434.44C1869.25,1413.2 1837.43,1382.03 1814.72,1341.74C1769.83,1262.1 1684.55,1173.2 1684.31,1172.94L1688.51,1168.95Z" style="fill:rgb(230,231,232);fill-rule:nonzero;"/>
        </g>
        <g transform="matrix(1.08298,0,0,1.08298,-23.313,-82.9001)">
            <path d="M1721.29,1270.64C1721.27,1271.08 1714.83,1426.54 1810.57,1475.12L1807.96,1480.3C1708.88,1430.02 1715.48,1270.89 1715.5,1270.43L1721.29,1270.64Z" style="fill:rgb(230,231,232);fill-rule:nonzero;"/>
        </g>
        <g transform="matrix(1.08298,0,0,1.08298,-23.313,-82.9001)">
            <path d="M2251.1,1236.24C2247.84,1239.51 2227.11,1295.44 2212.1,1353.31C2203.2,1387.65 2196.42,1422.51 2196.71,1447.15C2197.55,1517.91 2125.01,1499.48 2124.8,1499.43L2126.16,1493.8C2126.35,1493.84 2191.67,1510.43 2190.92,1447.22C2190.62,1421.99 2197.48,1386.62 2206.49,1351.86C2221.72,1293.15 2243.44,1235.71 2247.02,1232.13L2251.1,1236.24Z" style="fill:rgb(230,231,232);fill-rule:nonzero;"/>
        </g>
        <g transform="matrix(1.08298,0,0,1.08298,-23.313,-82.9001)">
            <path d="M1505.65,1204.49C1505.85,1204.8 1575.79,1311.66 1589.69,1411.17L1583.94,1411.96C1570.22,1313.74 1500.99,1207.96 1500.79,1207.65L1505.65,1204.49Z" style="fill:rgb(230,231,232);fill-rule:nonzero;"/>
        </g>
        <g transform="matrix(1.08298,0,0,1.08298,-23.313,-82.9001)">
            <path d="M1138.25,1387.12L1188.41,1458.36L1183.67,1461.7L1133.5,1390.46L1138.25,1387.12Z" style="fill:rgb(236,150,129);fill-rule:nonzero;"/>
        </g>
        <g transform="matrix(1.08298,0,0,1.08298,-23.313,-82.9001)">
            <path d="M945.12,1334.63C945.12,1334.47 944.682,1279.92 1006.93,1256.67L1008.95,1262.1C950.524,1283.92 950.936,1334.48 950.936,1334.63L945.12,1334.63Z" style="fill:rgb(236,150,129);fill-rule:nonzero;"/>
        </g>
        <g transform="matrix(1.08298,0,0,1.08298,-23.313,-82.9001)">
            <path d="M997.256,1200.72C999.588,1198.39 1069.11,1137.22 1069.3,1137.04L1071.61,1139.65C1071.41,1139.82 1001.76,1201.15 999.722,1203.18L997.256,1200.72ZM986.891,1189.31L1047.51,1125.63L1050.03,1128.03L989.413,1191.71L986.891,1189.31ZM1017.42,1210.38C1017.64,1210.22 1093.04,1152.97 1100.53,1151.24L1101.31,1154.64C1094.5,1156.21 1019.75,1212.99 1019.53,1213.15L1017.42,1210.38Z" style="fill:rgb(224,120,82);fill-rule:nonzero;"/>
        </g>
        <g transform="matrix(1.08298,0,0,1.08298,-23.313,-82.9001)">
            <path d="M935.926,1185.8L983.904,1105.11L986.904,1106.88L938.927,1187.57L935.926,1185.8ZM962.502,1189L1009.75,1116.67L1012.67,1118.58L965.42,1190.91L962.502,1189ZM954.61,1106.04L916.811,1181.28L913.701,1179.73L951.501,1104.49L954.61,1106.04Z" style="fill:rgb(224,120,82);fill-rule:nonzero;"/>
        </g>
        <g transform="matrix(1.08298,0,0,1.08298,-23.313,-82.9001)">
            <path d="M1044.27,1499.54L1088.98,1537.71L1086.84,1540.21L1042.13,1502.04L1044.27,1499.54Z" style="fill:rgb(236,150,129);fill-rule:nonzero;"/>
        </g>
        <g transform="matrix(1.08298,0,0,1.08298,-23.313,-82.9001)">
            <path d="M402.286,1519.43L467.347,1477.63L470.482,1482.52L405.421,1524.32L402.286,1519.43Z" style="fill:rgb(236,150,129);fill-rule:nonzero;"/>
        </g>
        <g transform="matrix(1.08298,0,0,1.08298,-23.313,-82.9001)">
            <path d="M1272.06,667.887C1272.04,668.261 1264.7,798.61 1265.15,837.072L1259.36,837.141C1258.91,798.371 1266.25,667.945 1266.27,667.571L1272.06,667.887Z" style="fill:rgb(124,202,196);fill-rule:nonzero;"/>
        </g>
        <g transform="matrix(1.08298,0,0,1.08298,-23.313,-82.9001)">
            <path d="M1123.29,922.514L1158.18,934.873L1156.25,940.349L1121.36,927.99L1123.29,922.514Z" style="fill:rgb(224,120,82);fill-rule:nonzero;"/>
        </g>
        <g transform="matrix(1.08298,0,0,1.08298,-23.313,-82.9001)">
            <path d="M1507.85,979.248C1507.89,979.253 1519.87,980.805 1536.86,994.399L1533.25,998.92C1517.53,986.347 1507.04,984.998 1507.01,984.995L1507.85,979.248Z" style="fill:rgb(224,120,82);fill-rule:nonzero;"/>
        </g>
        <g transform="matrix(1.08298,0,0,1.08298,-23.313,-82.9001)">
            <path d="M1259.18,380.177C1259.18,380.177 1266.16,454.453 1301.72,502.068C1337.27,549.684 1377.26,564.921 1413.45,557.303C1449.64,549.684 1483.29,497.626 1484.56,474.136C1485.83,450.647 1486.46,441.125 1486.46,441.125C1486.46,441.125 1507.41,427.794 1506.14,398.587C1504.87,369.383 1505.18,362.086 1495.03,355.102C1484.87,348.117 1472.49,351.609 1471.54,370.019C1470.59,388.43 1470.59,399.224 1472.49,411.286C1474.4,423.348 1477.26,433.509 1475.03,433.189C1472.81,432.87 1463.29,408.113 1457.58,389.066C1451.86,370.019 1435.36,339.548 1435.36,339.548C1435.36,339.548 1393.6,344.944 1354.87,340.659C1316.15,336.375 1286.95,323.676 1286.95,323.676C1286.95,323.676 1275.82,362.876 1259.18,380.177Z" style="fill:rgb(247,158,126);"/>
        </g>
        <g transform="matrix(1.08298,0,0,1.08298,-23.313,-82.9001)">
            <path d="M1374.77,387.645C1379.59,386.019 1385.23,389.854 1387.37,396.205C1389.51,402.557 1387.35,409.024 1382.53,410.65C1377.71,412.275 1372.07,408.441 1369.93,402.089C1367.79,395.737 1369.95,389.269 1374.77,387.645Z" style="fill:rgb(55,40,57);"/>
        </g>
        <g transform="matrix(1.08298,0,0,1.08298,-23.313,-82.9001)">
            <path d="M1294.14,413.04C1298.96,411.415 1304.6,415.249 1306.75,421.6C1308.89,427.952 1306.72,434.421 1301.9,436.044C1297.08,437.67 1291.44,433.836 1289.3,427.484C1287.16,421.132 1289.33,414.665 1294.14,413.04Z" style="fill:rgb(55,40,57);"/>
        </g>
        <g transform="matrix(1.08298,0,0,1.08298,-23.313,-82.9001)">
            <path d="M1346.46,379.739C1346.7,376.227 1348.04,372.177 1350.43,368.428C1352.78,364.729 1356.19,361.259 1360.59,358.829C1364.98,356.399 1370.36,355 1376.64,355.425C1383.11,355.865 1390.56,358.274 1398.88,363.577L1394.3,370.756C1387.31,366.303 1381.23,364.292 1376.07,363.941C1371.57,363.636 1367.77,364.612 1364.7,366.31C1361.63,368.006 1359.25,370.428 1357.61,373.004C1356.01,375.509 1355.12,378.116 1354.97,380.306L1346.46,379.739Z" style="fill:rgb(55,40,57);fill-rule:nonzero;"/>
        </g>
        <g transform="matrix(1.08298,0,0,1.08298,-23.313,-82.9001)">
            <path d="M1305.28,391.323C1305.23,391.295 1286.74,381.255 1274.52,403.126L1267.07,398.985C1283.42,369.745 1309.25,383.771 1309.32,383.81L1305.28,391.323Z" style="fill:rgb(55,40,57);fill-rule:nonzero;"/>
        </g>
        <g transform="matrix(1.08298,0,0,1.08298,-23.313,-82.9001)">
            <path d="M1328.69,415.153C1328.72,415.18 1341.15,424.4 1335.51,450.891C1333.02,462.625 1329.83,469.265 1327.72,473.68C1325.95,477.381 1325.21,478.934 1326.93,481.009C1331.15,486.07 1351.38,479.434 1351.44,479.418L1353.3,485.213C1353.23,485.232 1329.15,493.162 1322.26,484.896C1318.03,479.825 1319.27,477.236 1322.23,471.055C1324.21,466.924 1327.19,460.708 1329.55,449.628C1334.38,426.928 1324.96,419.99 1324.94,419.972L1328.69,415.153Z" style="fill:rgb(174,87,80);fill-rule:nonzero;"/>
        </g>
        <g transform="matrix(1.08298,0,0,1.08298,-23.313,-82.9001)">
            <path d="M1339.67,504.501C1339.92,504.501 1340.34,504.56 1340.99,504.645C1346.24,505.351 1372.55,508.896 1383.58,485.621L1389.09,488.221C1376.15,515.525 1346.16,511.483 1340.19,510.679L1339.67,510.608L1339.67,504.501Z" style="fill:rgb(174,87,80);fill-rule:nonzero;"/>
        </g>
        <g transform="matrix(1.08298,0,0,1.08298,-23.313,-82.9001)">
            <path d="M1690.3,1044.69C1690.2,1044.82 1654.43,1091.17 1618.26,1116.7L1614.92,1111.95C1650.35,1086.95 1685.61,1041.25 1685.71,1041.12L1690.3,1044.69Z" style="fill:rgb(124,202,196);fill-rule:nonzero;"/>
        </g>
        <g transform="matrix(1.08298,0,0,1.08298,-23.313,-82.9001)">
            <path d="M1683.33,782.664L1652.83,885.744L1647.26,884.109L1677.77,781.028L1683.33,782.664Z" style="fill:rgb(124,202,196);fill-rule:nonzero;"/>
        </g>
        <g transform="matrix(1.08298,0,0,1.08298,-23.313,-82.9001)">
            <path d="M1656.24,719.602C1656.06,719.863 1593.99,810.601 1547.09,831.837L1544.7,826.542C1590.12,805.975 1651.27,716.589 1651.45,716.331L1656.24,719.602Z" style="fill:rgb(124,202,196);fill-rule:nonzero;"/>
        </g>
        <g transform="matrix(1.08298,0,0,1.08298,-23.313,-82.9001)">
            <path d="M1437.65,206.775C1437.79,206.788 1486.03,210.934 1503,260.33L1497.5,262.216C1481.75,216.383 1437.21,212.556 1437.08,212.545L1437.65,206.775Z" style="fill:rgb(83,64,85);fill-rule:nonzero;"/>
        </g>
    </g>
</svg>
