<svg xmlns="http://www.w3.org/2000/svg" xmlns:xlink="http://www.w3.org/1999/xlink" width="48" height="48" viewBox="0 0 48 48"><defs><clipPath id="clip-Men"><rect width="48" height="48"></rect></clipPath></defs><g id="Men" clip-path="url(#clip-Men)"><g id="Group_88" data-name="Group 88" transform="translate(0.028)"><path id="Path_86" data-name="Path 86" d="M188.23,491.359s5.009-8.84-1.277-19.448c0,0-7.858-8.938-3.045-18.072,0,0,4.813-14.831,27.306-7.268,0,0,11.1,3.143,9.92,15.224l-1.08,1.473,4.223,5.992s2.848,2.259-3.143,3.045c0,0-1.67,4.911-.295,7.269,0,0,3.536,4.813-7.956,5.4,0,0-2.259.295-2.455,6.384Z" transform="translate(-179.68 -443.922)" fill="#e5eef0" stroke="#0f0f0f" stroke-miterlimit="10" stroke-width="1"></path><g id="Group_87" data-name="Group 87" transform="translate(11.031 6.816)"><g id="Group_80" data-name="Group 80" transform="translate(12.941 0) rotate(45)"><g id="Group_77" data-name="Group 77" transform="translate(0 6.972)"><g id="Ellipse_11" data-name="Ellipse 11" transform="translate(8.715 0)" fill="#fff" stroke="#0f0f0f" stroke-width="1"><ellipse cx="4.793" cy="2.179" rx="4.793" ry="2.179" stroke="none"></ellipse><ellipse cx="4.793" cy="2.179" rx="4.293" ry="1.679" fill="none"></ellipse></g><g id="Ellipse_12" data-name="Ellipse 12" transform="translate(0 0)" fill="#fff" stroke="#0f0f0f" stroke-width="1"><ellipse cx="4.793" cy="2.179" rx="4.793" ry="2.179" stroke="none"></ellipse><ellipse cx="4.793" cy="2.179" rx="4.293" ry="1.679" fill="none"></ellipse></g></g><g id="Group_78" data-name="Group 78" transform="translate(6.972 18.301) rotate(-90)"><g id="Ellipse_11-2" data-name="Ellipse 11" transform="translate(8.715 0)" fill="#fff" stroke="#0f0f0f" stroke-width="1"><ellipse cx="4.793" cy="2.179" rx="4.793" ry="2.179" stroke="none"></ellipse><ellipse cx="4.793" cy="2.179" rx="4.293" ry="1.679" fill="none"></ellipse></g><g id="Ellipse_12-2" data-name="Ellipse 12" transform="translate(0 0)" fill="#fff" stroke="#0f0f0f" stroke-width="1"><ellipse cx="4.793" cy="2.179" rx="4.793" ry="2.179" stroke="none"></ellipse><ellipse cx="4.793" cy="2.179" rx="4.293" ry="1.679" fill="none"></ellipse></g></g></g><g id="Group_79" data-name="Group 79" transform="translate(2.078 2.077)"><g id="Group_77-2" data-name="Group 77" transform="translate(0 8.658)"><g id="Ellipse_11-3" data-name="Ellipse 11" transform="translate(10.822)" fill="#fff" stroke="#0f0f0f" stroke-width="1"><ellipse cx="5.952" cy="2.706" rx="5.952" ry="2.706" stroke="none"></ellipse><ellipse cx="5.952" cy="2.706" rx="5.452" ry="2.206" fill="none"></ellipse></g><g id="Ellipse_12-3" data-name="Ellipse 12" fill="#fff" stroke="#0f0f0f" stroke-width="1"><ellipse cx="5.952" cy="2.706" rx="5.952" ry="2.706" stroke="none"></ellipse><ellipse cx="5.952" cy="2.706" rx="5.452" ry="2.206" fill="none"></ellipse></g></g><g id="Group_78-2" data-name="Group 78" transform="translate(8.658 22.727) rotate(-90)"><g id="Ellipse_11-4" data-name="Ellipse 11" transform="translate(10.822)" fill="#fff" stroke="#0f0f0f" stroke-width="1"><ellipse cx="5.952" cy="2.706" rx="5.952" ry="2.706" stroke="none"></ellipse><ellipse cx="5.952" cy="2.706" rx="5.452" ry="2.206" fill="none"></ellipse></g><g id="Ellipse_12-4" data-name="Ellipse 12" transform="translate(0)" fill="#fff" stroke="#0f0f0f" stroke-width="1"><ellipse cx="5.952" cy="2.706" rx="5.952" ry="2.706" stroke="none"></ellipse><ellipse cx="5.952" cy="2.706" rx="5.452" ry="2.206" fill="none"></ellipse></g></g></g></g></g></g></svg>