<svg xmlns="http://www.w3.org/2000/svg" xmlns:xlink="http://www.w3.org/1999/xlink" width="48" height="48" viewBox="0 0 48 48"><defs><clipPath id="clip-Pregnancy"><rect width="48" height="48"></rect></clipPath></defs><g id="Pregnancy" clip-path="url(#clip-Pregnancy)"><g id="Group_86" data-name="Group 86" transform="translate(-1289.206 -558.683)"><g id="Group_75" data-name="Group 75" transform="translate(1298 559.005)"><path id="Path_72" data-name="Path 72" d="M508.415,657.337l-1.64,6.8h24.886s-2.471-10.482-3.068-11.676-3.75-8.352-3.238-11.079l6.136.767s1.319-16.871.605-22.382c0,0-.038-3.471-6.145-2.929h-8.1s-2.642,4.432-4.773,5.369c0,0-6.647,2.386-3.153,8.608,0,0-2.3,1.619-2.046,3.494,0,0-13.125,9.886-.511,22.414Z" transform="translate(-501.896 -616.776)" fill="#e5eef0" stroke="#0f0f0f" stroke-miterlimit="10" stroke-width="1"></path><path id="Path_73" data-name="Path 73" d="M526.929,708.15" transform="translate(-517.106 -672.299)" fill="none" stroke="#0f0f0f" stroke-miterlimit="10" stroke-width="1"></path><path id="Path_74" data-name="Path 74" d="M517.155,661.454" transform="translate(-511.167 -643.926)" fill="none" stroke="#0f0f0f" stroke-miterlimit="10" stroke-width="1"></path><path id="Path_79" data-name="Path 79" d="M17.393,6.752,0,0" transform="translate(5.902 17.869)" fill="none" stroke="#0f0f0f" stroke-width="1"></path><path id="Path_75" data-name="Path 75" d="M522.989,653.115s6.952,1.87,8.145,3.233c0,0,6.647-.682,10.227,2.216" transform="translate(-515.09 -638.906)" fill="none" stroke="#0f0f0f" stroke-miterlimit="10" stroke-width="1"></path><path id="Path_76" data-name="Path 76" d="M562.482,617.58s-2.232,10.518-1.294,17.762" transform="translate(-537.745 -617.267)" fill="none" stroke="#0f0f0f" stroke-miterlimit="10" stroke-width="1"></path><path id="Path_77" data-name="Path 77" d="M530.274,722.064s-4.517,1.279-11.164-1.534" transform="translate(-512.355 -679.821)" fill="none" stroke="#0f0f0f" stroke-miterlimit="10" stroke-width="1"></path><path id="Path_78" data-name="Path 78" d="M517.948,693.441s-4.858-3.835-5.369-5.028-1.193-4.006,2.557-4.6a3.186,3.186,0,0,1,2.556,1.7s4.261-4.346,5.881,1.023c0,0,1.081,2.3-5.225,6.727Z" transform="translate(-508.141 -657.51)" fill="#fff" stroke="#0f0f0f" stroke-miterlimit="10" stroke-width="1"></path></g></g></g></svg>